<svg xmlns="http://www.w3.org/2000/svg" width="66" height="66" viewBox="0 0 66 66">
  <g id="Brainstorm" transform="translate(0 -31)">
    <rect id="Rectangle_28" data-name="Rectangle 28" width="66" height="66" rx="16" transform="translate(0 31)" fill="#fff"/>
    <g id="Group_516" data-name="Group 516" transform="translate(1520.935 -2603)">
      <path id="mind-icon" d="M4.893,20.66a.422.422,0,1,1,.367.76,2.277,2.277,0,0,1-1.253.188,4.234,4.234,0,0,1-.8-.169q.016.163.037.323.06.457.167.938a.42.42,0,0,1-.053.312A3.29,3.29,0,0,0,2.98,24.22a.981.981,0,0,0,.252.789,1.723,1.723,0,0,0,.921.416A6.764,6.764,0,0,0,6.5,25.348a14.946,14.946,0,0,0,2.687-.739,7.251,7.251,0,0,0,1.881-1.021,3.385,3.385,0,0,0,.915-1.593c.04-.115.079-.225.1-.273l.057-.153a5.7,5.7,0,0,1,1.212-2.248.421.421,0,1,1,.515.667,5.475,5.475,0,0,0-.934,1.868c-.044.12-.035.1-.057.156-.045.124-.069.192-.093.259A4.042,4.042,0,0,1,11.6,24.249a8.077,8.077,0,0,1-2.1,1.146c-.18.07-.362.135-.546.2a6.679,6.679,0,0,1-.029.828,6.973,6.973,0,0,1-.206,1.135.422.422,0,0,1-.816-.218,6.159,6.159,0,0,0,.183-1c.016-.162.025-.327.026-.492-.5.136-.99.245-1.454.328A7.594,7.594,0,0,1,4,26.254,2.533,2.533,0,0,1,2.631,25.6a1.785,1.785,0,0,1-.493-1.432,4,4,0,0,1,.417-1.428q-.087-.418-.146-.868c-.044-.333-.073-.669-.086-1.01,0-.012,0-.025,0-.036a.408.408,0,0,1-.006-.044c-.06-.638-.069-1.26-.077-1.888l0-.146-.976-.058H1.247a1.316,1.316,0,0,1-.673-.208,1.225,1.225,0,0,1-.432-.488A1.415,1.415,0,0,1,0,17.334a2.135,2.135,0,0,1,.368-1.1L1.415,14.1c.511-1.046.506-1.184.484-1.732-.01-.247-.022-.563-.007-1.037a7.99,7.99,0,0,1,.2-1.611A5.393,5.393,0,0,1,2.448,8.7L.55,7.871a.422.422,0,0,1-.172-.636C4.914,1.052,10.039-.65,14.373.2a12.026,12.026,0,0,1,6.495,3.742,12.613,12.613,0,0,1,3.208,6.693C24.64,14.7,23.01,19.053,17.989,22a.415.415,0,0,1-.136.051,15.365,15.365,0,0,0,.112,1.794,13.933,13.933,0,0,0,.791,3.235.422.422,0,0,1-.79.3,14.788,14.788,0,0,1-.84-3.431,17.221,17.221,0,0,1-.018-3.862.422.422,0,1,1,.839.085q-.047.463-.071.913c4.43-2.735,5.872-6.662,5.363-10.325a11.753,11.753,0,0,0-2.994-6.24,11.175,11.175,0,0,0-6.035-3.482C10.27.257,5.6,1.787,1.376,7.311l1.8.787a.422.422,0,0,1,.217.615,4.258,4.258,0,0,0-.481,1.2,7.149,7.149,0,0,0-.181,1.439c-.014.441,0,.743.007.978a3.329,3.329,0,0,1-.57,2.136L1.123,16.612a.433.433,0,0,1-.033.063,1.32,1.32,0,0,0-.245.676A.578.578,0,0,0,.9,17.62a.39.39,0,0,0,.134.154.48.48,0,0,0,.241.073h.034l1.21.071A.4.4,0,0,1,2.64,17.9h.043l1.114.1a.423.423,0,1,1-.069.842l-.022,0L3.078,18.8v.087c.008.548.015,1.092.058,1.64a3.975,3.975,0,0,0,.955.246,1.47,1.47,0,0,0,.8-.109h0Z" transform="translate(-1499.938 2653.001)" fill="#2ec4b6"/>
      <path id="concept-icon" d="M8.061,4.582l.316.314h0a.339.339,0,0,1,0,.489l-.185.188c0,.006.006.013.008.019a1.685,1.685,0,0,1,.087.229l0,.014h.227a.352.352,0,0,1,.349.349v.449a.344.344,0,0,1-.349.348H8.253a1.857,1.857,0,0,1-.115.254l.161.159.006.006a.359.359,0,0,1,0,.489l0,0-.316.314a.344.344,0,0,1-.5,0l-.183-.186a2.141,2.141,0,0,1-.264.1v.225a.352.352,0,0,1-.349.349H6.244A.344.344,0,0,1,5.9,8.344V8.08a2.6,2.6,0,0,1-.254-.116l-.158.161-.006.006a.359.359,0,0,1-.49,0l0,0-.316-.32a.34.34,0,0,1,0-.491l.185-.184a.067.067,0,0,1-.008-.021,1.852,1.852,0,0,1-.085-.227l0-.017H4.535a.35.35,0,0,1-.348-.35V6.069a.345.345,0,0,1,.349-.349H4.8a2.358,2.358,0,0,1,.115-.254l-.158-.16a.348.348,0,0,1,0-.5l.313-.316v0a.34.34,0,0,1,.489,0l.187.186a.132.132,0,0,0,.017-.008,1.882,1.882,0,0,1,.227-.087.053.053,0,0,1,.016,0V4.355a.352.352,0,0,1,.349-.349H6.8a.344.344,0,0,1,.349.349v.264l.021.008a2.021,2.021,0,0,1,.221.1l.013.006.161-.159a.338.338,0,0,1,.492.005ZM.459,7.013a.454.454,0,0,1-.022-.907l.973-.033a.454.454,0,0,1,.345.764.456.456,0,0,1-.316.143c-.322,0-.656.027-.979.034Zm4.653,4.608a.254.254,0,0,1-.054-.5A3.356,3.356,0,0,0,4.1,9.363a5.46,5.46,0,0,1-.931-1.332,4.026,4.026,0,0,1-.4-1.746,4.1,4.1,0,0,1,.492-1.866l.007-.012A3.544,3.544,0,0,1,4.99,2.9a3.828,3.828,0,0,1,1.8-.257A4.145,4.145,0,0,1,8.5,3.192,3.541,3.541,0,0,1,10,4.89a3.762,3.762,0,0,1,.284,1.32A3.82,3.82,0,0,1,10,7.761,5.5,5.5,0,0,1,8.938,9.382,3.613,3.613,0,0,0,8.11,10.7a.254.254,0,0,1-.023.5L8,11.215q-.024.183-.03.392L8,11.6a.254.254,0,1,1,.069.5l-.087.013a2.576,2.576,0,0,1,.007.334l.014,0a.254.254,0,0,1,.063.5l-.187.023a1.383,1.383,0,0,1-2.519.266.255.255,0,0,1-.137-.2.248.248,0,0,1,.008-.1,2.293,2.293,0,0,1-.1-.428H5.123a.254.254,0,0,1-.069-.5l.06-.009c0-.136,0-.266,0-.389Zm.419-.571L7.6,10.757a3.779,3.779,0,0,1,.983-1.684,5.094,5.094,0,0,0,.979-1.49,3.361,3.361,0,0,0,.258-1.362,3.267,3.267,0,0,0-.25-1.155A3.072,3.072,0,0,0,8.264,3.6a3.635,3.635,0,0,0-1.518-.488,3.364,3.364,0,0,0-1.578.226,3.078,3.078,0,0,0-1.5,1.309,3.629,3.629,0,0,0-.436,1.645A3.544,3.544,0,0,0,3.594,7.83a5.071,5.071,0,0,0,.859,1.22A3.7,3.7,0,0,1,5.53,11.05Zm1.982.231-1.929.274c.006.123.008.251.006.388l1.9-.27c0-.137.008-.268.019-.391ZM5.6,12.454a1.853,1.853,0,0,0,.059.284l1.849-.228a1.667,1.667,0,0,0,0-.327L5.6,12.454Zm.322.764A.9.9,0,0,0,7.3,13.048Zm6.635-7.6a.454.454,0,0,1,.092.9l-.967.1a.454.454,0,0,1-.092-.9l.967-.1Zm-1.92-3.866a.453.453,0,0,1,.289-.193l.011,0a.453.453,0,0,1,.454.7l-.541.809a.454.454,0,0,1-.822-.164l0-.011a.452.452,0,0,1,.071-.329Zm-4.2-1.3a.453.453,0,1,1,.906.021l-.025.967a.152.152,0,0,1,0,.033.452.452,0,0,1-.456.414.149.149,0,0,1-.033,0,.452.452,0,0,1-.415-.462L6.435.446ZM1.617,2.116a.454.454,0,0,1,.619-.665l.711.664a.454.454,0,0,1-.618.665ZM6.725,5.362a1,1,0,0,1,.725.6s0,.008,0,.01a.941.941,0,0,1,.055.181,1,1,0,0,1,0,.4,1.009,1.009,0,0,1-.6.728s-.008,0-.01,0a1.007,1.007,0,0,1-1.311-.54s0-.008,0-.01a1.009,1.009,0,0,1-.055-.586,1.02,1.02,0,0,1,.422-.635,1,1,0,0,1,.363-.152.987.987,0,0,1,.406,0Z" transform="translate(-1493.802 2656.603)" fill="#ff9f1c" fill-rule="evenodd"/>
    </g>
  </g>
</svg>
