<svg xmlns="http://www.w3.org/2000/svg" width="66" height="66" viewBox="0 0 66 66">
  <g id="Menu" transform="translate(0 -31)">
    <rect id="Rectangle_28" data-name="Rectangle 28" width="66" height="66" rx="16" transform="translate(0 31)" fill="#fff"/>
    <g id="layout-fluid" transform="translate(21.5 52.5)">
      <path id="Path_7786" data-name="Path 7786" d="M2.009,11.048H13.057a2.009,2.009,0,0,0,2.009-2.009V2.009A2.009,2.009,0,0,0,13.057,0H2.009A2.009,2.009,0,0,0,0,2.009V9.039A2.009,2.009,0,0,0,2.009,11.048Z" transform="translate(-0.5 -0.5)" fill="#2ec4b6"/>
      <path id="Path_7787" data-name="Path 7787" d="M369.353.886A2.009,2.009,0,0,0,367.688,0h-3.013a2.009,2.009,0,0,0-2.009,2.009V9.039a2.009,2.009,0,0,0,2.009,2.009h3.013A2.009,2.009,0,0,0,369.7,9.039V2.009A2,2,0,0,0,369.353.886Z" transform="translate(-345.69 -0.5)" fill="#ff9f1c"/>
      <path id="Path_7788" data-name="Path 7788" d="M6.145,277.676a2,2,0,0,0-1.123-.344H2.009A2.009,2.009,0,0,0,0,279.342v7.031a2.009,2.009,0,0,0,2.009,2.009H5.022a2.009,2.009,0,0,0,2.009-2.009v-7.031A2.009,2.009,0,0,0,6.145,277.676Z" transform="translate(-0.5 -264.374)" fill="#ff9f1c"/>
      <path id="Path_7789" data-name="Path 7789" d="M206.18,277.676a2,2,0,0,0-1.123-.344H194.009A2.009,2.009,0,0,0,192,279.342v7.031a2.009,2.009,0,0,0,2.009,2.009h11.048a2.009,2.009,0,0,0,2.009-2.009v-7.031A2.009,2.009,0,0,0,206.18,277.676Z" transform="translate(-183.059 -264.374)" fill="#2ec4b6"/>
    </g>
  </g>
</svg>
