<svg width="40" height="40" viewBox="0 0 40 40" fill="none" xmlns="http://www.w3.org/2000/svg">
<g clip-path="url(#clip0_830_17157)">
<path d="M11.9714 35.9212C8.34016 39.1877 2.68617 38.6076 2.43742 38.5907L1.50875 38.4913L0 38.342L1.74102 36.6009C2.52047 35.8216 2.55367 34.827 2.55344 33.2352C2.58664 27.7966 6.05188 25.4254 10.4623 25.4258C10.4623 25.4258 10.9433 25.4752 11.59 25.5252L13.0658 26.9345L14.7736 28.576L14.5746 29.5377C14.5746 31.8588 14.2096 33.9148 11.9715 35.921L11.9714 35.9212Z" fill="url(#paint0_linear_830_17157)"/>
<path d="M24.9037 21.6284L21.6539 21.6949L19.117 19.158C18.8353 17.3505 18.4871 15.2118 18.3711 15.0959C19.366 14.1672 36.2358 0.845625 37.3134 0L39.9995 2.68617C39.1542 3.76375 25.8323 20.6335 24.9037 21.6284V21.6284Z" fill="url(#paint1_linear_830_17157)"/>
<g filter="url(#filter0_f_830_17157)">
<path d="M22.033 16.5366L38.1408 2.15219L38.1428 1.52718L37.4791 1.36881C36.4176 2.23462 21.2956 14.3709 20.319 15.3184L20.3142 16.8418L22.033 16.5366Z" fill="#6174CD"/>
</g>
<path d="M23.2945 23.3363C20.6914 25.9063 17.707 28.0284 14.5732 29.5375L10.4609 25.4255C11.97 22.2917 14.0922 19.3071 16.6621 16.7039C16.8779 16.4882 17.7733 15.6261 18.3702 15.0957L24.9027 21.6283C24.3723 22.2252 23.5103 23.1205 23.2945 23.3363Z" fill="url(#paint2_linear_830_17157)"/>
<g filter="url(#filter1_f_830_17157)">
<path d="M17.9373 18.3049C15.7581 20.3429 13.8065 22.7884 12.2344 25.4516L12.7736 25.8055L20.0192 18.7202L19.3634 17.0618C18.8708 17.4674 18.1197 18.1364 17.9373 18.3049Z" fill="#E7EBFF"/>
</g>
<g filter="url(#filter2_f_830_17157)">
<path d="M4.76431 28.2878C6.29784 26.0502 8.355 26.6368 8.44601 26.6564L8.78366 26.7556L3.83525 34.711L3.29941 33.4806L3.42912 32.7956C3.56455 31.128 3.81953 29.6619 4.76431 28.2878Z" fill="#FFD6A0"/>
</g>
</g>
<defs>
<filter id="filter0_f_830_17157" x="18.3125" y="-0.631348" width="21.832" height="19.4731" filterUnits="userSpaceOnUse" color-interpolation-filters="sRGB">
<feFlood flood-opacity="0" result="BackgroundImageFix"/>
<feBlend mode="normal" in="SourceGraphic" in2="BackgroundImageFix" result="shape"/>
<feGaussianBlur stdDeviation="1" result="effect1_foregroundBlur_830_17157"/>
</filter>
<filter id="filter1_f_830_17157" x="10.7344" y="15.562" width="10.7852" height="11.7437" filterUnits="userSpaceOnUse" color-interpolation-filters="sRGB">
<feFlood flood-opacity="0" result="BackgroundImageFix"/>
<feBlend mode="normal" in="SourceGraphic" in2="BackgroundImageFix" result="shape"/>
<feGaussianBlur stdDeviation="0.75" result="effect1_foregroundBlur_830_17157"/>
</filter>
<filter id="filter2_f_830_17157" x="1.80078" y="25.0728" width="8.48438" height="11.1382" filterUnits="userSpaceOnUse" color-interpolation-filters="sRGB">
<feFlood flood-opacity="0" result="BackgroundImageFix"/>
<feBlend mode="normal" in="SourceGraphic" in2="BackgroundImageFix" result="shape"/>
<feGaussianBlur stdDeviation="0.75" result="effect1_foregroundBlur_830_17157"/>
</filter>
<linearGradient id="paint0_linear_830_17157" x1="14.0234" y1="30.2735" x2="3.4375" y2="30.3517" gradientUnits="userSpaceOnUse">
<stop stop-color="#F1A83E"/>
<stop offset="1" stop-color="#FBC679"/>
</linearGradient>
<linearGradient id="paint1_linear_830_17157" x1="32.2768" y1="10.8106" x2="29.7775" y2="8.36205" gradientUnits="userSpaceOnUse">
<stop stop-color="#27305A"/>
<stop offset="1" stop-color="#485389"/>
</linearGradient>
<linearGradient id="paint2_linear_830_17157" x1="14.2564" y1="18.867" x2="20.8189" y2="25.5467" gradientUnits="userSpaceOnUse">
<stop stop-color="#DDEBFF"/>
<stop offset="0.822917" stop-color="#B4CDFE"/>
</linearGradient>
<clipPath id="clip0_830_17157">
<rect width="40" height="40" fill="white"/>
</clipPath>
</defs>
</svg>
