<svg width="22" height="40" viewBox="0 0 22 40" fill="none" xmlns="http://www.w3.org/2000/svg">
<g filter="url(#filter0_ii_830_17169)">
<g clip-path="url(#clip0_830_17169)">
<path d="M18.0065 0H3.96023C1.89718 0 0.21875 1.67843 0.21875 3.74148V36.2585C0.21875 38.3216 1.89718 40 3.96023 40H18.0065C20.0695 40 21.7479 38.3216 21.7479 36.2585V3.74148C21.7479 1.67843 20.0696 0 18.0065 0Z" fill="url(#paint0_linear_830_17169)"/>
<path d="M19.6762 36.2584C19.6762 37.1799 18.9292 37.9269 18.0077 37.9269H3.96148C3.04 37.9269 2.29297 37.1799 2.29297 36.2584V3.74135C2.29297 2.81986 3.04 2.07283 3.96148 2.07283H5.71203C5.87763 2.07283 6.03644 2.13861 6.15353 2.25571C6.27062 2.3728 6.33641 2.53161 6.33641 2.69721V3.09314C6.33641 3.62439 6.77102 4.059 7.30227 4.059H14.6669C15.1981 4.059 15.6327 3.62439 15.6327 3.09314V2.52049C15.6327 2.40174 15.6799 2.28786 15.7639 2.20389C15.8478 2.11993 15.9617 2.07275 16.0805 2.07275H18.0077C18.9292 2.07275 19.6762 2.81979 19.6762 3.74127V36.2584Z" fill="url(#paint1_linear_830_17169)"/>
<path d="M13.4148 2.67667H10.263C10.1029 2.67667 9.94931 2.61307 9.8361 2.49986C9.72289 2.38665 9.65929 2.2331 9.65929 2.073C9.65929 1.91289 9.72289 1.75935 9.8361 1.64614C9.94931 1.53293 10.1029 1.46933 10.263 1.46933H13.4148C13.5749 1.46933 13.7284 1.53293 13.8416 1.64614C13.9548 1.75935 14.0184 1.91289 14.0184 2.073C14.0184 2.2331 13.9548 2.38665 13.8416 2.49986C13.7284 2.61307 13.5749 2.67667 13.4148 2.67667ZM8.02937 2.57495C7.59718 2.29089 7.70195 1.59643 8.24585 1.48112C8.61585 1.40479 8.96789 1.69136 8.96789 2.07268C8.96789 2.35308 8.77437 2.6044 8.48171 2.66511C8.44312 2.67229 8.15226 2.65808 8.02937 2.57495Z" fill="#2F2F2F"/>
<path d="M6.1775 8.91896H4.56219C4.49086 8.91874 4.42251 8.8903 4.37207 8.83986C4.32163 8.78942 4.2932 8.72108 4.29297 8.64975V7.03436C4.2932 6.96302 4.32163 6.89468 4.37207 6.84424C4.42251 6.7938 4.49086 6.76536 4.56219 6.76514H6.1775C6.24883 6.76536 6.31718 6.7938 6.36762 6.84424C6.41806 6.89468 6.44649 6.96302 6.44672 7.03436V8.64967C6.44655 8.72103 6.41814 8.78941 6.36769 8.83988C6.31724 8.89034 6.24886 8.91878 6.1775 8.91896Z" fill="url(#paint2_linear_830_17169)"/>
<path d="M9.97828 8.91896H8.36297C8.29164 8.91874 8.22329 8.8903 8.17285 8.83986C8.12241 8.78942 8.09398 8.72108 8.09375 8.64975V7.03436C8.09398 6.96302 8.12241 6.89468 8.17285 6.84424C8.22329 6.7938 8.29164 6.76536 8.36297 6.76514H9.97828C10.0496 6.76536 10.118 6.7938 10.1684 6.84424C10.2188 6.89468 10.2473 6.96302 10.2475 7.03436V8.64967C10.2473 8.72101 10.2189 8.78938 10.1684 8.83983C10.118 8.89029 10.0496 8.91874 9.97828 8.91896Z" fill="url(#paint3_linear_830_17169)"/>
<path d="M13.783 8.91896H12.1677C12.0963 8.91874 12.028 8.8903 11.9775 8.83986C11.9271 8.78942 11.8987 8.72108 11.8984 8.64975V7.03436C11.8987 6.96302 11.9271 6.89468 11.9775 6.84424C12.028 6.7938 12.0963 6.76536 12.1677 6.76514H13.783C13.8543 6.76536 13.9226 6.7938 13.9731 6.84424C14.0235 6.89468 14.052 6.96302 14.0522 7.03436V8.64967C14.052 8.72101 14.0236 8.78938 13.9731 8.83983C13.9227 8.89029 13.8543 8.91874 13.783 8.91896Z" fill="url(#paint4_linear_830_17169)"/>
<path d="M17.5837 8.91896H15.9684C15.8971 8.91874 15.8288 8.8903 15.7783 8.83986C15.7279 8.78942 15.6994 8.72108 15.6992 8.64975V7.03436C15.6994 6.96302 15.7279 6.89468 15.7783 6.84424C15.8288 6.7938 15.8971 6.76536 15.9684 6.76514H17.5837C17.6551 6.76536 17.7234 6.7938 17.7739 6.84424C17.8243 6.89468 17.8527 6.96302 17.853 7.03436V8.64967C17.8528 8.72101 17.8243 8.78938 17.7739 8.83983C17.7235 8.89029 17.6551 8.91874 17.5837 8.91896Z" fill="url(#paint5_linear_830_17169)"/>
<path d="M6.1775 12.7592H4.56219C4.49086 12.759 4.42251 12.7306 4.37207 12.6801C4.32163 12.6297 4.2932 12.5613 4.29297 12.49V10.8747C4.2932 10.8034 4.32163 10.735 4.37207 10.6846C4.42251 10.6341 4.49086 10.6057 4.56219 10.6055H6.1775C6.24883 10.6057 6.31718 10.6341 6.36762 10.6846C6.41806 10.735 6.44649 10.8034 6.44672 10.8747V12.49C6.44653 12.5613 6.41811 12.6297 6.36766 12.6802C6.31721 12.7306 6.24884 12.759 6.1775 12.7592Z" fill="url(#paint6_linear_830_17169)"/>
<path d="M9.97828 12.7592H8.36297C8.29164 12.759 8.22329 12.7306 8.17285 12.6801C8.12241 12.6297 8.09398 12.5613 8.09375 12.49V10.8747C8.09398 10.8034 8.12241 10.735 8.17285 10.6846C8.22329 10.6341 8.29164 10.6057 8.36297 10.6055H9.97828C10.0496 10.6057 10.118 10.6341 10.1684 10.6846C10.2188 10.735 10.2473 10.8034 10.2475 10.8747V12.49C10.2473 12.5613 10.2188 12.6297 10.1684 12.6801C10.118 12.7306 10.0496 12.759 9.97828 12.7592Z" fill="url(#paint7_linear_830_17169)"/>
<path d="M13.783 12.7592H12.1677C12.0963 12.759 12.028 12.7306 11.9775 12.6801C11.9271 12.6297 11.8987 12.5613 11.8984 12.49V10.8747C11.8987 10.8034 11.9271 10.735 11.9775 10.6846C12.028 10.6341 12.0963 10.6057 12.1677 10.6055H13.783C13.8543 10.6057 13.9226 10.6341 13.9731 10.6846C14.0235 10.735 14.052 10.8034 14.0522 10.8747V12.49C14.052 12.5613 14.0235 12.6297 13.9731 12.6801C13.9226 12.7306 13.8543 12.759 13.783 12.7592Z" fill="url(#paint8_linear_830_17169)"/>
<path d="M17.5837 12.7592H15.9684C15.8971 12.759 15.8288 12.7306 15.7783 12.6801C15.7279 12.6297 15.6994 12.5613 15.6992 12.49V10.8747C15.6994 10.8034 15.7279 10.735 15.7783 10.6846C15.8288 10.6341 15.8971 10.6057 15.9684 10.6055H17.5837C17.6551 10.6057 17.7234 10.6341 17.7739 10.6846C17.8243 10.735 17.8527 10.8034 17.853 10.8747V12.49C17.8527 12.5613 17.8243 12.6297 17.7739 12.6801C17.7234 12.7306 17.6551 12.759 17.5837 12.7592Z" fill="url(#paint9_linear_830_17169)"/>
<path d="M6.1775 16.6494H4.56219C4.49086 16.6491 4.42251 16.6207 4.37207 16.5703C4.32163 16.5198 4.2932 16.4515 4.29297 16.3801V14.7648C4.2932 14.6935 4.32163 14.6251 4.37207 14.5747C4.42251 14.5243 4.49086 14.4958 4.56219 14.4956H6.1775C6.24883 14.4958 6.31718 14.5243 6.36762 14.5747C6.41806 14.6251 6.44649 14.6935 6.44672 14.7648V16.3801C6.44653 16.4515 6.41811 16.5198 6.36766 16.5703C6.31721 16.6207 6.24884 16.6492 6.1775 16.6494Z" fill="url(#paint10_linear_830_17169)"/>
<path d="M9.97828 16.6494H8.36297C8.29164 16.6491 8.22329 16.6207 8.17285 16.5703C8.12241 16.5198 8.09398 16.4515 8.09375 16.3801V14.7648C8.09398 14.6935 8.12241 14.6251 8.17285 14.5747C8.22329 14.5243 8.29164 14.4958 8.36297 14.4956H9.97828C10.0496 14.4958 10.118 14.5243 10.1684 14.5747C10.2188 14.6251 10.2473 14.6935 10.2475 14.7648V16.3801C10.2473 16.4515 10.2188 16.5198 10.1684 16.5703C10.118 16.6207 10.0496 16.6491 9.97828 16.6494Z" fill="url(#paint11_linear_830_17169)"/>
<path d="M13.783 16.6494H12.1677C12.0963 16.6491 12.028 16.6207 11.9775 16.5703C11.9271 16.5198 11.8987 16.4515 11.8984 16.3801V14.7648C11.8987 14.6935 11.9271 14.6251 11.9775 14.5747C12.028 14.5243 12.0963 14.4958 12.1677 14.4956H13.783C13.8543 14.4958 13.9226 14.5243 13.9731 14.5747C14.0235 14.6251 14.052 14.6935 14.0522 14.7648V16.3801C14.052 16.4515 14.0235 16.5198 13.9731 16.5703C13.9226 16.6207 13.8543 16.6491 13.783 16.6494Z" fill="url(#paint12_linear_830_17169)"/>
<path d="M17.5837 16.6494H15.9684C15.8971 16.6491 15.8288 16.6207 15.7783 16.5703C15.7279 16.5198 15.6994 16.4515 15.6992 16.3801V14.7648C15.6994 14.6935 15.7279 14.6251 15.7783 14.5747C15.8288 14.5243 15.8971 14.4958 15.9684 14.4956H17.5837C17.6551 14.4958 17.7234 14.5243 17.7739 14.5747C17.8243 14.6251 17.8527 14.6935 17.853 14.7648V16.3801C17.8527 16.4515 17.8243 16.5198 17.7739 16.5703C17.7234 16.6207 17.6551 16.6491 17.5837 16.6494Z" fill="url(#paint13_linear_830_17169)"/>
<path d="M6.1775 20.4897H4.56219C4.49086 20.4895 4.42251 20.461 4.37207 20.4106C4.32163 20.3601 4.2932 20.2918 4.29297 20.2205V18.6052C4.2932 18.5338 4.32163 18.4655 4.37207 18.415C4.42251 18.3646 4.49086 18.3362 4.56219 18.3359H6.1775C6.24883 18.3362 6.31718 18.3646 6.36762 18.415C6.41806 18.4655 6.44649 18.5338 6.44672 18.6052V20.2205C6.44653 20.2918 6.41811 20.3602 6.36766 20.4106C6.31721 20.4611 6.24884 20.4895 6.1775 20.4897ZM9.98039 20.4897H8.36508C8.29375 20.4895 8.2254 20.461 8.17496 20.4106C8.12452 20.3601 8.09608 20.2918 8.09586 20.2205V18.6052C8.09608 18.5338 8.12452 18.4655 8.17496 18.415C8.2254 18.3646 8.29375 18.3362 8.36508 18.3359H9.98039C10.0517 18.3362 10.1201 18.3646 10.1705 18.415C10.2209 18.4655 10.2494 18.5338 10.2496 18.6052V20.2205C10.2494 20.2918 10.2209 20.3601 10.1705 20.4106C10.1201 20.461 10.0517 20.4895 9.98039 20.4897Z" fill="url(#paint14_linear_830_17169)"/>
<path d="M13.783 20.4897H12.1677C12.0963 20.4895 12.028 20.461 11.9775 20.4106C11.9271 20.3601 11.8987 20.2918 11.8984 20.2205V18.6052C11.8987 18.5338 11.9271 18.4655 11.9775 18.415C12.028 18.3646 12.0963 18.3362 12.1677 18.3359H13.783C13.8543 18.3362 13.9226 18.3646 13.9731 18.415C14.0235 18.4655 14.052 18.5338 14.0522 18.6052V20.2205C14.052 20.2918 14.0235 20.3601 13.9731 20.4106C13.9226 20.461 13.8543 20.4895 13.783 20.4897Z" fill="url(#paint15_linear_830_17169)"/>
<path d="M6.1775 24.33H4.56219C4.49086 24.3298 4.42251 24.3014 4.37207 24.2509C4.32163 24.2005 4.2932 24.1321 4.29297 24.0608V22.4455C4.2932 22.3742 4.32163 22.3058 4.37207 22.2554C4.42251 22.2049 4.49086 22.1765 4.56219 22.1763H6.1775C6.24883 22.1765 6.31718 22.2049 6.36762 22.2554C6.41806 22.3058 6.44649 22.3742 6.44672 22.4455V24.0608C6.44653 24.1321 6.41811 24.2005 6.36766 24.251C6.31721 24.3014 6.24884 24.3298 6.1775 24.33Z" fill="url(#paint16_linear_830_17169)"/>
<path d="M9.97828 24.33H8.36297C8.29164 24.3298 8.22329 24.3014 8.17285 24.2509C8.12241 24.2005 8.09398 24.1321 8.09375 24.0608V22.4455C8.09398 22.3742 8.12241 22.3058 8.17285 22.2554C8.22329 22.2049 8.29164 22.1765 8.36297 22.1763H9.97828C10.0496 22.1765 10.118 22.2049 10.1684 22.2554C10.2188 22.3058 10.2473 22.3742 10.2475 22.4455V24.0608C10.2473 24.1321 10.2188 24.2005 10.1684 24.2509C10.118 24.3014 10.0496 24.3298 9.97828 24.33Z" fill="url(#paint17_linear_830_17169)"/>
<path d="M13.783 24.33H12.1677C12.0963 24.3298 12.028 24.3014 11.9775 24.2509C11.9271 24.2005 11.8987 24.1321 11.8984 24.0608V22.4455C11.8987 22.3742 11.9271 22.3058 11.9775 22.2554C12.028 22.2049 12.0963 22.1765 12.1677 22.1763H13.783C13.8543 22.1765 13.9226 22.2049 13.9731 22.2554C14.0235 22.3058 14.052 22.3742 14.0522 22.4455V24.0608C14.052 24.1321 14.0235 24.2005 13.9731 24.2509C13.9226 24.3014 13.8543 24.3298 13.783 24.33Z" fill="url(#paint18_linear_830_17169)"/>
<path d="M17.5837 20.4897H15.9684C15.8971 20.4895 15.8288 20.461 15.7783 20.4106C15.7279 20.3601 15.6994 20.2918 15.6992 20.2205V18.6052C15.6994 18.5338 15.7279 18.4655 15.7783 18.415C15.8288 18.3646 15.8971 18.3362 15.9684 18.3359H17.5837C17.6551 18.3362 17.7234 18.3646 17.7739 18.415C17.8243 18.4655 17.8527 18.5338 17.853 18.6052V20.2205C17.8527 20.2918 17.8243 20.3601 17.7739 20.4106C17.7234 20.461 17.6551 20.4895 17.5837 20.4897Z" fill="url(#paint19_linear_830_17169)"/>
<path d="M6.1775 36.1791H4.56219C4.49086 36.1789 4.42251 36.1505 4.37207 36.1C4.32163 36.0496 4.2932 35.9813 4.29297 35.9099V34.2946C4.2932 34.2233 4.32163 34.1549 4.37207 34.1045C4.42251 34.0541 4.49086 34.0256 4.56219 34.0254H6.1775C6.24883 34.0256 6.31718 34.0541 6.36762 34.1045C6.41805 34.1549 6.44649 34.2233 6.44672 34.2946V35.9099C6.44649 35.9813 6.41805 36.0496 6.36762 36.1C6.31718 36.1505 6.24883 36.1789 6.1775 36.1791Z" fill="url(#paint20_linear_830_17169)"/>
<path d="M9.97828 36.1791H8.36297C8.29164 36.1789 8.22329 36.1505 8.17285 36.1C8.12241 36.0496 8.09398 35.9813 8.09375 35.9099V34.2946C8.09398 34.2233 8.12241 34.1549 8.17285 34.1045C8.22329 34.0541 8.29164 34.0256 8.36297 34.0254H9.97828C10.0496 34.0256 10.118 34.0541 10.1684 34.1045C10.2188 34.1549 10.2473 34.2233 10.2475 34.2946V35.9099C10.2473 35.9813 10.2188 36.0496 10.1684 36.1C10.118 36.1505 10.0496 36.1789 9.97828 36.1791Z" fill="url(#paint21_linear_830_17169)"/>
<path d="M13.783 36.1791H12.1677C12.0963 36.1789 12.028 36.1505 11.9775 36.1C11.9271 36.0496 11.8987 35.9813 11.8984 35.9099V34.2946C11.8987 34.2233 11.9271 34.1549 11.9775 34.1045C12.028 34.0541 12.0963 34.0256 12.1677 34.0254H13.783C13.8543 34.0256 13.9226 34.0541 13.9731 34.1045C14.0235 34.1549 14.052 34.2233 14.0522 34.2946V35.9099C14.052 35.9813 14.0235 36.0496 13.9731 36.1C13.9226 36.1505 13.8543 36.1789 13.783 36.1791Z" fill="url(#paint22_linear_830_17169)"/>
<path d="M17.5837 36.1791H15.9684C15.8971 36.1789 15.8288 36.1505 15.7783 36.1C15.7279 36.0496 15.6994 35.9813 15.6992 35.9099V34.2946C15.6994 34.2233 15.7279 34.1549 15.7783 34.1045C15.8288 34.0541 15.8971 34.0256 15.9684 34.0254H17.5837C17.6551 34.0256 17.7234 34.0541 17.7739 34.1045C17.8243 34.1549 17.8527 34.2233 17.853 34.2946V35.9099C17.8527 35.9813 17.8243 36.0496 17.7739 36.1C17.7234 36.1505 17.6551 36.1789 17.5837 36.1791Z" fill="url(#paint23_linear_830_17169)"/>
</g>
</g>
<defs>
<filter id="filter0_ii_830_17169" x="-0.5" y="-0.5" width="23.2" height="41.2" filterUnits="userSpaceOnUse" color-interpolation-filters="sRGB">
<feFlood flood-opacity="0" result="BackgroundImageFix"/>
<feBlend mode="normal" in="SourceGraphic" in2="BackgroundImageFix" result="shape"/>
<feColorMatrix in="SourceAlpha" type="matrix" values="0 0 0 0 0 0 0 0 0 0 0 0 0 0 0 0 0 0 127 0" result="hardAlpha"/>
<feOffset dx="-2" dy="-1"/>
<feGaussianBlur stdDeviation="0.25"/>
<feComposite in2="hardAlpha" operator="arithmetic" k2="-1" k3="1"/>
<feColorMatrix type="matrix" values="0 0 0 0 0 0 0 0 0 0 0 0 0 0 0 0 0 0 0.4 0"/>
<feBlend mode="normal" in2="shape" result="effect1_innerShadow_830_17169"/>
<feColorMatrix in="SourceAlpha" type="matrix" values="0 0 0 0 0 0 0 0 0 0 0 0 0 0 0 0 0 0 127 0" result="hardAlpha"/>
<feOffset dx="1" dy="1"/>
<feGaussianBlur stdDeviation="0.35"/>
<feComposite in2="hardAlpha" operator="arithmetic" k2="-1" k3="1"/>
<feColorMatrix type="matrix" values="0 0 0 0 0 0 0 0 0 0 0 0 0 0 0 0 0 0 0.38 0"/>
<feBlend mode="normal" in2="effect1_innerShadow_830_17169" result="effect2_innerShadow_830_17169"/>
</filter>
<linearGradient id="paint0_linear_830_17169" x1="2" y1="2" x2="22" y2="20" gradientUnits="userSpaceOnUse">
<stop stop-color="#535454"/>
<stop offset="1" stop-color="#4F4F4F"/>
</linearGradient>
<linearGradient id="paint1_linear_830_17169" x1="20" y1="28" x2="2.5" y2="11.5" gradientUnits="userSpaceOnUse">
<stop stop-color="#69CCFF"/>
<stop offset="0.302638" stop-color="#84D5FF"/>
<stop offset="1" stop-color="#A4D9F4"/>
</linearGradient>
<linearGradient id="paint2_linear_830_17169" x1="5.36984" y1="6.76514" x2="5.36984" y2="8.91896" gradientUnits="userSpaceOnUse">
<stop stop-color="#95D2FF"/>
<stop offset="1" stop-color="#2687CE"/>
</linearGradient>
<linearGradient id="paint3_linear_830_17169" x1="9.17063" y1="6.76514" x2="9.17063" y2="8.91896" gradientUnits="userSpaceOnUse">
<stop stop-color="#DC93FF"/>
<stop offset="1" stop-color="#9932CA"/>
</linearGradient>
<linearGradient id="paint4_linear_830_17169" x1="12.9753" y1="6.76514" x2="12.9753" y2="8.91896" gradientUnits="userSpaceOnUse">
<stop stop-color="#C1EB3C"/>
<stop offset="1" stop-color="#6B8D00"/>
</linearGradient>
<linearGradient id="paint5_linear_830_17169" x1="16.7761" y1="6.76514" x2="16.7761" y2="8.91896" gradientUnits="userSpaceOnUse">
<stop stop-color="#A8A8A8"/>
<stop offset="1" stop-color="#3D3D3D"/>
</linearGradient>
<linearGradient id="paint6_linear_830_17169" x1="5.36984" y1="10.6055" x2="5.36984" y2="12.7592" gradientUnits="userSpaceOnUse">
<stop stop-color="#C1EB3C"/>
<stop offset="1" stop-color="#6B8D00"/>
</linearGradient>
<linearGradient id="paint7_linear_830_17169" x1="9.17063" y1="10.6055" x2="9.17063" y2="12.7592" gradientUnits="userSpaceOnUse">
<stop stop-color="#A8A8A8"/>
<stop offset="1" stop-color="#3D3D3D"/>
</linearGradient>
<linearGradient id="paint8_linear_830_17169" x1="12.9753" y1="10.6055" x2="12.9753" y2="12.7592" gradientUnits="userSpaceOnUse">
<stop stop-color="#95D2FF"/>
<stop offset="1" stop-color="#2687CE"/>
</linearGradient>
<linearGradient id="paint9_linear_830_17169" x1="16.7761" y1="10.6055" x2="16.7761" y2="12.7592" gradientUnits="userSpaceOnUse">
<stop stop-color="#FF9997"/>
<stop offset="1" stop-color="#AB1B18"/>
</linearGradient>
<linearGradient id="paint10_linear_830_17169" x1="5.36984" y1="14.4956" x2="5.36984" y2="16.6494" gradientUnits="userSpaceOnUse">
<stop stop-color="#FFD7B4"/>
<stop offset="1" stop-color="#D77722"/>
</linearGradient>
<linearGradient id="paint11_linear_830_17169" x1="9.17063" y1="14.4956" x2="9.17063" y2="16.6494" gradientUnits="userSpaceOnUse">
<stop stop-color="#FFE2AE"/>
<stop offset="1" stop-color="#F59D00"/>
</linearGradient>
<linearGradient id="paint12_linear_830_17169" x1="12.9753" y1="14.4956" x2="12.9753" y2="16.6494" gradientUnits="userSpaceOnUse">
<stop stop-color="#A8A8A8"/>
<stop offset="1" stop-color="#3D3D3D"/>
</linearGradient>
<linearGradient id="paint13_linear_830_17169" x1="16.7761" y1="14.4956" x2="16.7761" y2="16.6494" gradientUnits="userSpaceOnUse">
<stop stop-color="#FFE2AE"/>
<stop offset="1" stop-color="#F59D00"/>
</linearGradient>
<linearGradient id="paint14_linear_830_17169" x1="7.27129" y1="18.3359" x2="7.27129" y2="20.4897" gradientUnits="userSpaceOnUse">
<stop stop-color="#95D2FF"/>
<stop offset="1" stop-color="#2687CE"/>
</linearGradient>
<linearGradient id="paint15_linear_830_17169" x1="12.9753" y1="18.3359" x2="12.9753" y2="20.4897" gradientUnits="userSpaceOnUse">
<stop stop-color="#FF9997"/>
<stop offset="1" stop-color="#AB1B18"/>
</linearGradient>
<linearGradient id="paint16_linear_830_17169" x1="5.36984" y1="22.1763" x2="5.36984" y2="24.33" gradientUnits="userSpaceOnUse">
<stop stop-color="#DC93FF"/>
<stop offset="1" stop-color="#9932CA"/>
</linearGradient>
<linearGradient id="paint17_linear_830_17169" x1="9.17063" y1="22.1763" x2="9.17063" y2="24.33" gradientUnits="userSpaceOnUse">
<stop stop-color="#C1EB3C"/>
<stop offset="1" stop-color="#6B8D00"/>
</linearGradient>
<linearGradient id="paint18_linear_830_17169" x1="12.9753" y1="22.1763" x2="12.9753" y2="24.33" gradientUnits="userSpaceOnUse">
<stop stop-color="#A8A8A8"/>
<stop offset="1" stop-color="#3D3D3D"/>
</linearGradient>
<linearGradient id="paint19_linear_830_17169" x1="16.7761" y1="18.3359" x2="16.7761" y2="20.4897" gradientUnits="userSpaceOnUse">
<stop stop-color="#FFD7B4"/>
<stop offset="1" stop-color="#D77722"/>
</linearGradient>
<linearGradient id="paint20_linear_830_17169" x1="5.36984" y1="34.0254" x2="5.36984" y2="36.1791" gradientUnits="userSpaceOnUse">
<stop stop-color="#C1EB3C"/>
<stop offset="1" stop-color="#6B8D00"/>
</linearGradient>
<linearGradient id="paint21_linear_830_17169" x1="9.17063" y1="34.0254" x2="9.17063" y2="36.1791" gradientUnits="userSpaceOnUse">
<stop stop-color="#FF9997"/>
<stop offset="1" stop-color="#AB1B18"/>
</linearGradient>
<linearGradient id="paint22_linear_830_17169" x1="12.9753" y1="34.0254" x2="12.9753" y2="36.1791" gradientUnits="userSpaceOnUse">
<stop stop-color="#C1EB3C"/>
<stop offset="1" stop-color="#6B8D00"/>
</linearGradient>
<linearGradient id="paint23_linear_830_17169" x1="16.7761" y1="34.0254" x2="16.7761" y2="36.1791" gradientUnits="userSpaceOnUse">
<stop stop-color="#FFD7B4"/>
<stop offset="1" stop-color="#D77722"/>
</linearGradient>
<clipPath id="clip0_830_17169">
<rect width="22" height="40" rx="4" fill="white"/>
</clipPath>
</defs>
</svg>
