<svg xmlns="http://www.w3.org/2000/svg" width="66" height="66" viewBox="0 0 66 66">
  <g id="Class_Schedules" data-name="Class Schedules" transform="translate(0 2)">
    <rect id="Rectangle_28" data-name="Rectangle 28" width="66" height="66" rx="16" transform="translate(0 -2)" fill="#fff"/>
    <g id="Group_501" data-name="Group 501">
      <path id="calendar-lines-pen" d="M19,2H18V1a1,1,0,0,0-2,0V2H8V1A1,1,0,0,0,6,1V2H5A5.006,5.006,0,0,0,0,7V19a5.006,5.006,0,0,0,5,5H9a1,1,0,0,0,0-2H5a3,3,0,0,1-3-3V10H23a1,1,0,0,0,1-1V7A5.006,5.006,0,0,0,19,2Zm3,6H2V7A3,3,0,0,1,5,4H19a3,3,0,0,1,3,3Zm-3.121,4.879-5.707,5.707A3.976,3.976,0,0,0,12,21.415V23a1,1,0,0,0,1,1h1.586a3.973,3.973,0,0,0,2.828-1.172l5.707-5.707a3,3,0,0,0,0-4.243,3.071,3.071,0,0,0-4.243,0Zm2.828,2.828L16,21.414A1.983,1.983,0,0,1,14.585,22H14v-.586A1.986,1.986,0,0,1,14.585,20l5.708-5.707a1.023,1.023,0,0,1,1.414,0,1,1,0,0,1,0,1.414ZM5,14a1,1,0,0,1,1-1h7a1,1,0,0,1,0,2H6A1,1,0,0,1,5,14Zm6,4a1,1,0,0,1-1,1H6a1,1,0,0,1,0-2h4A1,1,0,0,1,11,18Z" transform="translate(21 19)" fill="#2ec4b6"/>
      <path id="calendar-lines-pen-2" data-name="calendar-lines-pen" d="M18.879,12.879l-5.707,5.707A3.976,3.976,0,0,0,12,21.415V23a1,1,0,0,0,1,1h1.586a3.973,3.973,0,0,0,2.828-1.172l5.707-5.707a3,3,0,0,0,0-4.243,3.071,3.071,0,0,0-4.243,0Zm2.828,2.828L16,21.414A1.983,1.983,0,0,1,14.585,22H14v-.586A1.986,1.986,0,0,1,14.585,20l5.708-5.707a1.023,1.023,0,0,1,1.414,0,1,1,0,0,1,0,1.414ZM5,14a1,1,0,0,1,1-1h7a1,1,0,0,1,0,2H6A1,1,0,0,1,5,14Zm6,4a1,1,0,0,1-1,1H6a1,1,0,0,1,0-2h4A1,1,0,0,1,11,18Z" transform="translate(21 19)" fill="#ff9f1c"/>
    </g>
  </g>
</svg>
