<svg xmlns="http://www.w3.org/2000/svg" width="66" height="66" viewBox="0 0 66 66">
  <g id="Ebook_Cover" data-name="Ebook Cover" transform="translate(0 -31)">
    <rect id="Rectangle_28" data-name="Rectangle 28" width="66" height="66" rx="16" transform="translate(0 31)" fill="#fff"/>
    <g id="Group_512" data-name="Group 512" transform="translate(1816 -2635)">
      <path id="Path_11399" data-name="Path 11399" d="M1.31,2.4l23.12.732,1.1,13.677-4.812,2.75v4.281l.79,1.095-16.643.048L1.755,23.38,1.31,19.362Z" transform="translate(-1797 2686)" fill="#ff9f1c"/>
      <g id="ebook-icon" transform="translate(-1796 2686)">
        <path id="Path_11398" data-name="Path 11398" d="M3.52,0H20.482a.679.679,0,0,1,.676.678v.708a7.1,7.1,0,0,1,2.51,1.777A7.756,7.756,0,0,1,25.3,5.931a10.169,10.169,0,0,1,.512,3.293v2.033a2.231,2.231,0,0,1-1.206,1.981l.7,1.6a2.227,2.227,0,0,1-.653,2.627,8.038,8.038,0,0,1-1.348.857,10.758,10.758,0,0,1-1.54.643c-.2.069-.4.132-.607.189v.454c-.029.529-.712.54-1.451.51H3.268a1.855,1.855,0,1,0,0,3.709H19.705V21.854h1.451v2.51a.833.833,0,0,1-.83.832H3.339A3.349,3.349,0,0,1,0,21.856V3.52A3.53,3.53,0,0,1,3.52,0Zm14.5,17.325a6.244,6.244,0,0,1-4.78-1.92,6.864,6.864,0,0,1-1.789-4.869v-.51A7.568,7.568,0,0,1,13.14,4.955,5.618,5.618,0,0,1,17.685,2.97a5.59,5.59,0,0,1,4.343,1.689A6.5,6.5,0,0,1,23.576,9.22v2.033H15.322l-.025.074a3.636,3.636,0,0,0,.916,2.252,2.841,2.841,0,0,0,2.2.882,7.209,7.209,0,0,0,2.058-.25,9.689,9.689,0,0,0,1.789-.783l1.008,2.3a7.246,7.246,0,0,1-2.216,1.136,9.534,9.534,0,0,1-3.039.464Zm-.33-11.476a1.944,1.944,0,0,0-1.636.79,4.164,4.164,0,0,0-.741,2.086l.04.061h4.577V8.454a3,3,0,0,0-.559-1.9,2.012,2.012,0,0,0-1.68-.706ZM4.171,2.747h.586a.5.5,0,0,1,.546.441V17.021a.5.5,0,0,1-.546.441H4.171a.5.5,0,0,1-.544-.441V3.188a.5.5,0,0,1,.544-.441Z" fill="#2ec4b6" fill-rule="evenodd"/>
      </g>
    </g>
  </g>
</svg>
