<svg xmlns="http://www.w3.org/2000/svg" width="66" height="66" viewBox="0 0 66 66">
  <g id="Infographics" transform="translate(0 2)">
    <rect id="Rectangle_28" data-name="Rectangle 28" width="66" height="66" rx="16" transform="translate(0 -2)" fill="#fff"/>
    <g id="Group_30" data-name="Group 30" transform="translate(2093.983 -2511.25)">
      <circle id="Ellipse_48" data-name="Ellipse 48" cx="10.75" cy="10.75" r="10.75" transform="translate(-2071.75 2531.25)" fill="#2ec4b6"/>
      <path id="Union_18" data-name="Union 18" d="M11.314,20.354a11.641,11.641,0,0,1-8.125-3.719A11.626,11.626,0,0,1,0,9.041a.85.85,0,0,1,.219-.454.609.609,0,0,1,.465-.152h7.2l4.035,4.012V19.7a.609.609,0,0,1-.156.484.534.534,0,0,1-.394.176A.357.357,0,0,1,11.314,20.354Zm8.9-3.754a.61.61,0,0,1-.433-.229l-4.634-4.8.433-6.77,4.5-4.342a.606.606,0,0,1,.457-.224.522.522,0,0,1,.438.206,11.639,11.639,0,0,1,2.969,8.429,11.632,11.632,0,0,1-3.248,7.568.86.86,0,0,1-.467.158Z" transform="translate(-2072.983 2533.834)" fill="#ff9f1c"/>
      <circle id="Ellipse_49" data-name="Ellipse 49" cx="5" cy="5" r="5" transform="translate(-2066 2537)" fill="#f1fffe"/>
      <g id="Group_29" data-name="Group 29" transform="translate(-0.247 -0.75)">
        <rect id="Rectangle_29" data-name="Rectangle 29" width="4.5" height="1.5" rx="0.75" transform="translate(-2063 2541)" fill="#2ec4b6"/>
        <rect id="Rectangle_30" data-name="Rectangle 30" width="3.5" height="1.5" rx="0.75" transform="translate(-2062.5 2543)" fill="#2ec4b6"/>
      </g>
    </g>
  </g>
</svg>
