<svg xmlns="http://www.w3.org/2000/svg" width="66" height="66" viewBox="0 0 66 66">
  <g id="Photo_Collages" data-name="Photo Collages" transform="translate(0 2)">
    <rect id="Rectangle_28" data-name="Rectangle 28" width="66" height="66" rx="16" transform="translate(0 -2)" fill="#fff"/>
    <g id="Group_31" data-name="Group 31" transform="translate(-0.465)">
      <path id="Path_7817" data-name="Path 7817" d="M1.07,0H9.628A1.07,1.07,0,0,1,10.7,1.07V9.628a1.07,1.07,0,0,1-1.07,1.07H1.07A1.07,1.07,0,0,1,0,9.628V1.07A1.07,1.07,0,0,1,1.07,0Z" transform="translate(33.837 17)" fill="#2ec4b6"/>
      <path id="Path_7821" data-name="Path 7821" d="M.856,0H7.7a.856.856,0,0,1,.856.856V7.7a.856.856,0,0,1-.856.856H.856A.856.856,0,0,1,0,7.7V.856A.856.856,0,0,1,.856,0Z" transform="translate(20.465 29.775)" fill="#2ec4b6"/>
      <path id="Path_7822" data-name="Path 7822" d="M.588,0H5.3a.588.588,0,0,1,.588.588V5.3a.588.588,0,0,1-.588.588H.588A.588.588,0,0,1,0,5.3V.588A.588.588,0,0,1,.588,0Z" transform="translate(38.651 29.232)" fill="#2ec4b6"/>
      <path id="Path_7818" data-name="Path 7818" d="M.374,0h3a.374.374,0,0,1,.374.374v3a.374.374,0,0,1-.374.374h-3A.374.374,0,0,1,0,3.37v-3A.374.374,0,0,1,.374,0Z" transform="translate(29.023 24.823)" fill="#2ec4b6"/>
      <path id="Path_7819" data-name="Path 7819" d="M.374,0h3a.374.374,0,0,1,.374.374v3a.374.374,0,0,1-.374.374h-3A.374.374,0,0,1,0,3.37v-3A.374.374,0,0,1,.374,0Z" transform="translate(30.093 38.333)" fill="#2ec4b6"/>
      <path id="Path_7820" data-name="Path 7820" d="M.374,0h3a.374.374,0,0,1,.374.374v3a.374.374,0,0,1-.374.374h-3A.374.374,0,0,1,0,3.37v-3A.374.374,0,0,1,.374,0Z" transform="translate(34.907 38.333)" fill="#2ec4b6"/>
      <path id="Path_7823" data-name="Path 7823" d="M.644,0H5.8a.637.637,0,0,1,.644.63V5.67A.637.637,0,0,1,5.8,6.3H.644A.637.637,0,0,1,0,5.67V.63A.637.637,0,0,1,.644,0Z" transform="translate(39.721 36.651)" fill="#ff9f1c"/>
      <path id="Path_7824" data-name="Path 7824" d="M.537,0H4.829a.531.531,0,0,1,.537.525v4.2a.531.531,0,0,1-.537.525H.537A.531.531,0,0,1,0,4.725V.525A.531.531,0,0,1,.537,0Z" transform="translate(23.657 39.532)" fill="#ff9f1c"/>
      <path id="Path_7825" data-name="Path 7825" d="M.751,0h6.01a.743.743,0,0,1,.751.735v5.88a.743.743,0,0,1-.751.735H.751A.743.743,0,0,1,0,6.615V.735A.743.743,0,0,1,.751,0Z" transform="translate(29.976 29.775)" fill="#ff9f1c"/>
      <path id="Path_7826" data-name="Path 7826" d="M.537,0H4.829a.531.531,0,0,1,.537.525v4.2a.531.531,0,0,1-.537.525H.537A.531.531,0,0,1,0,4.725V.525A.531.531,0,0,1,.537,0Z" transform="translate(22.588 23)" fill="#ff9f1c"/>
    </g>
  </g>
</svg>
