<svg xmlns="http://www.w3.org/2000/svg" width="66" height="66" viewBox="0 0 66 66">
  <g id="Reports" transform="translate(0 2)">
    <rect id="Rectangle_28" data-name="Rectangle 28" width="66" height="66" rx="16" transform="translate(0 -2)" fill="#fff"/>
    <g id="Group_496" data-name="Group 496" transform="translate(1378 -2493)">
      <path id="Path_11307" data-name="Path 11307" d="M.259,26.809a.443.443,0,0,1-.259-.4V.439A.439.439,0,0,1,.439,0H22.219a.439.439,0,0,1,.439.439V24.111a.666.666,0,0,1,0,.068,2.958,2.958,0,0,1-.848,2.017,3.266,3.266,0,0,1-2.136.8.5.5,0,0,1-.057,0H.622a.443.443,0,0,1-.363-.191ZM7.8,7.669H8.9a.105.105,0,0,1,.105.105V9.938a.105.105,0,0,1-.105.105H7.8a.105.105,0,0,1-.105-.105V7.774A.105.105,0,0,1,7.8,7.669ZM3.7,6.344H4.8a.105.105,0,0,1,.105.105V9.941a.105.105,0,0,1-.105.105H3.7A.105.105,0,0,1,3.6,9.941V6.449A.1.1,0,0,1,3.7,6.344ZM5.752,5.6h1.1a.105.105,0,0,1,.105.105V9.941a.105.105,0,0,1-.105.105h-1.1a.105.105,0,0,1-.105-.105V5.7A.1.1,0,0,1,5.752,5.6ZM21.782,24.1V.877H.877V26.124H19.62a2.43,2.43,0,0,0,1.582-.56,2.139,2.139,0,0,0,.58-1.463Z" transform="translate(-1356 2511)" fill="#2ec4b6" fill-rule="evenodd"/>
      <path id="Path_11311" data-name="Path 11311" d="M8.406,6.2a.439.439,0,0,1,0-.879h3.261a.439.439,0,0,1,0,.879Z" transform="translate(-1360.71 2507.942)" fill="#ff9f1c" fill-rule="evenodd"/>
      <path id="Path_11308" data-name="Path 11308" d="M13.909,13.686h1.1a.105.105,0,0,1,.105.105v4.236a.105.105,0,0,1-.105.105h-1.1a.105.105,0,0,1-.105-.105V13.791a.1.1,0,0,1,.105-.105Z" transform="translate(-1364.157 2502.913)" fill="#ff9f1c" fill-rule="evenodd"/>
      <path id="Path_11309" data-name="Path 11309" d="M8.406,42.643a.438.438,0,0,1,0-.877H23.9a.438.438,0,0,1,0,.877Zm0-6.4a.438.438,0,0,1,0-.877h6.62a.438.438,0,0,1,0,.877Zm0-2.854a.439.439,0,0,1,0-.879h5.458a.439.439,0,0,1,0,.879Z" transform="translate(-1360.71 2491.789)" fill="#ff9f1c" fill-rule="evenodd"/>
      <path id="Path_11310" data-name="Path 11310" d="M8.578,43.3a.439.439,0,0,1,0-.879H23.959a.439.439,0,0,1,0,.879Zm8.24-3.388a.438.438,0,0,1,0-.877h7.141a.438.438,0,0,1,0,.877Z" transform="translate(-1360.827 2488.107)" fill="#2ec4b6" fill-rule="evenodd"/>
      <g id="Group_496-2" data-name="Group 496" transform="translate(-1344.671 2514.144)">
        <path id="Path_11312" data-name="Path 11312" d="M32.012,13.466l3.612.013a3.615,3.615,0,0,1-1.077,2.56,3.669,3.669,0,0,1-.527.431l-2.008-3Zm-.8-.167,1.936,3.353a3.871,3.871,0,1,1-2.5-7.183l.563,3.83Z" transform="translate(-27.339 -8.74)" fill="#ff9f1c" fill-rule="evenodd"/>
        <path id="Path_11313" data-name="Path 11313" d="M37.581,11.7l-.193-3.861a.138.138,0,0,1,.132-.145c.022,0,.048,0,.077,0l.077,0a4.008,4.008,0,0,1,4.043,3.724.138.138,0,0,1-.127.147l-3.863.277a.138.138,0,0,1-.147-.127.024.024,0,0,0,0-.011Zm.09-3.733.18,3.586,3.582-.255A3.732,3.732,0,0,0,37.68,7.965l-.009,0Z" transform="translate(-33.245 -7.686)" fill="#2ec4b6" fill-rule="evenodd"/>
      </g>
    </g>
  </g>
</svg>
