<svg xmlns="http://www.w3.org/2000/svg" width="66" height="66" viewBox="0 0 66 66">
  <g id="Resume" transform="translate(1 -31)">
    <rect id="Rectangle_28" data-name="Rectangle 28" width="66" height="66" rx="16" transform="translate(-1 31)" fill="#fff"/>
    <g id="Group_521" data-name="Group 521" transform="translate(1838 -2709)">
      <g id="resume-cv-icon" transform="translate(-1818 2759)">
        <path id="Path_11418" data-name="Path 11418" d="M.264,27.278A.451.451,0,0,1,0,26.869V.447A.447.447,0,0,1,.447,0H22.608a.447.447,0,0,1,.447.447V24.533a.678.678,0,0,1,0,.069,3.02,3.02,0,0,1-.863,2.055,3.323,3.323,0,0,1-2.173.814.508.508,0,0,1-.058,0H.633a.459.459,0,0,1-.369-.2Zm3.568-9.6a.447.447,0,0,1,0-.894h15.65a.447.447,0,0,1,0,.894Zm18.331,6.846V.892H.892V26.581H19.963a2.472,2.472,0,0,0,1.61-.57,2.176,2.176,0,0,0,.59-1.489Z" transform="translate(0 0)" fill="#2ec4b6"/>
      </g>
      <g id="resume-cv-icon-2" data-name="resume-cv-icon" transform="translate(-1814.796 2761.251)">
        <path id="Path_11418-2" data-name="Path 11418" d="M21.677,16.555a1.518,1.518,0,0,0,2.75.007,3.332,3.332,0,0,1-.358-.456c-.018-.025-.036-.051-.051-.076a1.5,1.5,0,0,1-.966.331,1.47,1.47,0,0,1-1.031-.414l-.047-.045c-.038.107-.087.235-.139.353a2.582,2.582,0,0,1-.159.3Zm2.9-.121c.588.416,2.019.516,2.569.823a1.489,1.489,0,0,1,.481.407c.277.364.841,1.69-.076,1.76H25.831l.212-2.374a4.337,4.337,0,0,1-1.464-.456,1.623,1.623,0,0,1-3.076.038,4.6,4.6,0,0,1-1.44.445l.333,2.345H18.545c-.917-.069-.351-1.4-.076-1.76a1.522,1.522,0,0,1,.481-.407c.548-.306,1.972-.407,2.564-.818a1.9,1.9,0,0,0,.134-.264c.067-.154.13-.324.17-.44a5.407,5.407,0,0,1-.443-.63l-.447-.713a1.32,1.32,0,0,1-.255-.651.487.487,0,0,1,.045-.233.439.439,0,0,1,.154-.179.5.5,0,0,1,.11-.056,11.062,11.062,0,0,1-.02-1.281,1.666,1.666,0,0,1,.056-.291,1.722,1.722,0,0,1,.758-.966,2.374,2.374,0,0,1,.635-.282c.141-.04-.02-.36.127-.376a3.249,3.249,0,0,1,2.258.979,1.739,1.739,0,0,1,.438,1.1L25.2,13.315h0a.325.325,0,0,1,.237.244,1.009,1.009,0,0,1-.123.613h0a.109.109,0,0,0-.007.016l-.51.841a4.374,4.374,0,0,1-.626.863c.022.031.045.065.067.1a3.029,3.029,0,0,0,.333.429c0,.007,0,.011,0,.016Zm-3.345-2.956a.456.456,0,0,0-.226.058.185.185,0,0,0-.065.074.254.254,0,0,0-.02.121,1.092,1.092,0,0,0,.212.521l0,0,.447.713a3.844,3.844,0,0,0,.6.791,1.239,1.239,0,0,0,.859.347,1.265,1.265,0,0,0,.91-.362,3.985,3.985,0,0,0,.619-.845l.505-.832a.824.824,0,0,0,.107-.443c-.013-.049-.067-.074-.163-.08a.543.543,0,0,0-.06,0c-.022,0-.047,0-.072,0a.106.106,0,0,1-.038,0,.729.729,0,0,1-.139-.007l.172-.765c-1.283.2-2.242-.751-3.6-.19l.1.9a.856.856,0,0,1-.152-.007ZM27.277,32a.447.447,0,0,1,0-.894h3.729a.447.447,0,0,1,0,.894ZM15.283,28.748a.447.447,0,0,1,0-.894H31.045a.447.447,0,0,1,0,.894Zm0-6.51a.447.447,0,0,1,0-.894h6.736a.447.447,0,0,1,0,.894Zm8.456,0a.447.447,0,0,1,0-.894H31a.447.447,0,0,1,0,.894Z" transform="translate(-14.84 -10.068)" fill="#ff9f1c"/>
      </g>
    </g>
  </g>
</svg>
