<svg id="Zoom_Virtual_Backgrounds" data-name="Zoom Virtual Backgrounds" xmlns="http://www.w3.org/2000/svg" xmlns:xlink="http://www.w3.org/1999/xlink" width="66" height="66" viewBox="0 0 66 66">
  <defs>
    <clipPath id="clip-path">
      <path id="Path_11360" data-name="Path 11360" d="M.259,26.809a.443.443,0,0,1-.259-.4V.439A.439.439,0,0,1,.439,0H22.219a.439.439,0,0,1,.439.439V24.111a.666.666,0,0,1,0,.068,2.958,2.958,0,0,1-.848,2.017,3.266,3.266,0,0,1-2.136.8.5.5,0,0,1-.057,0H.622a.443.443,0,0,1-.363-.191ZM21.782.877Z" fill="#2ec4b6" clip-rule="evenodd"/>
    </clipPath>
  </defs>
  <rect id="Rectangle_28" data-name="Rectangle 28" width="66" height="66" rx="16" fill="#fff"/>
  <g id="Group_502" data-name="Group 502" transform="translate(21.671 19.5)">
    <g id="Group_502-2" data-name="Group 502">
      <g id="Mask_Group_28" data-name="Mask Group 28" clip-path="url(#clip-path)">
        <g id="Group_503" data-name="Group 503" transform="translate(-6.069 -8.095)">
          <path id="Path_11309" data-name="Path 11309" d="M.42.846A.422.422,0,0,1,0,.422.42.42,0,0,1,.42,0H35.372a.423.423,0,0,1,0,.846Z" transform="translate(0.003 18.086) rotate(-20)" fill="#ff9f1c" fill-rule="evenodd"/>
          <path id="Path_11356" data-name="Path 11356" d="M.42.846A.422.422,0,0,1,0,.422.42.42,0,0,1,.42,0H35.372a.423.423,0,0,1,0,.846Z" transform="translate(0.003 35.62) rotate(-20)" fill="#ff9f1c" fill-rule="evenodd"/>
          <path id="Path_11349" data-name="Path 11349" d="M.42.846A.422.422,0,0,1,0,.422.42.42,0,0,1,.42,0H35.372a.423.423,0,0,1,0,.846Z" transform="translate(0.003 23.931) rotate(-20)" fill="#ff9f1c" fill-rule="evenodd"/>
          <path id="Path_11358" data-name="Path 11358" d="M.42.846A.422.422,0,0,1,0,.422.42.42,0,0,1,.42,0H35.372a.423.423,0,0,1,0,.846Z" transform="translate(0.003 41.466) rotate(-20)" fill="#ff9f1c" fill-rule="evenodd"/>
          <path id="Path_11351" data-name="Path 11351" d="M.42.846A.422.422,0,0,1,0,.422.42.42,0,0,1,.42,0H35.372a.423.423,0,0,1,0,.846Z" transform="translate(0.003 29.776) rotate(-20)" fill="#ff9f1c" fill-rule="evenodd"/>
          <path id="Path_11353" data-name="Path 11353" d="M.42.846A.422.422,0,0,1,0,.422.42.42,0,0,1,.42,0H35.372a.423.423,0,0,1,0,.846Z" transform="translate(0.003 47.31) rotate(-20)" fill="#ff9f1c" fill-rule="evenodd"/>
          <path id="Path_11347" data-name="Path 11347" d="M.42.846A.422.422,0,0,1,0,.422.42.42,0,0,1,.42,0H35.372a.423.423,0,0,1,0,.846Z" transform="translate(0.003 12.241) rotate(-20)" fill="#ff9f1c" fill-rule="evenodd"/>
          <path id="Path_11310" data-name="Path 11310" d="M.42.848A.422.422,0,0,1,0,.424.422.422,0,0,1,.42,0H35.266a.422.422,0,0,1,.42.424.422.422,0,0,1-.42.424Z" transform="translate(0 15.145) rotate(-20)" fill="#2ec4b6" fill-rule="evenodd"/>
          <path id="Path_11355" data-name="Path 11355" d="M.42.848A.422.422,0,0,1,0,.424.422.422,0,0,1,.42,0H35.266a.422.422,0,0,1,.42.424.422.422,0,0,1-.42.424Z" transform="translate(0 32.679) rotate(-20)" fill="#2ec4b6" fill-rule="evenodd"/>
          <path id="Path_11348" data-name="Path 11348" d="M.42.848A.422.422,0,0,1,0,.424.422.422,0,0,1,.42,0H35.266a.422.422,0,0,1,.42.424.422.422,0,0,1-.42.424Z" transform="translate(0 20.99) rotate(-20)" fill="#2ec4b6" fill-rule="evenodd"/>
          <path id="Path_11357" data-name="Path 11357" d="M.42.848A.422.422,0,0,1,0,.424.422.422,0,0,1,.42,0H35.266a.422.422,0,0,1,.42.424.422.422,0,0,1-.42.424Z" transform="translate(0 38.524) rotate(-20)" fill="#2ec4b6" fill-rule="evenodd"/>
          <path id="Path_11350" data-name="Path 11350" d="M.42.848A.422.422,0,0,1,0,.424.422.422,0,0,1,.42,0H35.266a.422.422,0,0,1,.42.424.422.422,0,0,1-.42.424Z" transform="translate(0 26.834) rotate(-20)" fill="#2ec4b6" fill-rule="evenodd"/>
          <path id="Path_11352" data-name="Path 11352" d="M.42.848A.422.422,0,0,1,0,.424.422.422,0,0,1,.42,0H35.266a.422.422,0,0,1,.42.424.422.422,0,0,1-.42.424Z" transform="translate(0 44.368) rotate(-20)" fill="#2ec4b6" fill-rule="evenodd"/>
        </g>
      </g>
      <path id="Path_11361" data-name="Path 11361" d="M.259,26.809a.443.443,0,0,1-.259-.4V.439A.439.439,0,0,1,.439,0H22.219a.439.439,0,0,1,.439.439V24.111a.666.666,0,0,1,0,.068,2.958,2.958,0,0,1-.848,2.017,3.266,3.266,0,0,1-2.136.8.5.5,0,0,1-.057,0H.622a.443.443,0,0,1-.363-.191ZM21.782,24.1V.877H.877V26.124H19.62a2.43,2.43,0,0,0,1.582-.56,2.139,2.139,0,0,0,.58-1.463Z" fill="#2ec4b6" fill-rule="evenodd"/>
    </g>
  </g>
</svg>
