<svg xmlns="http://www.w3.org/2000/svg" width="66" height="66" viewBox="0 0 66 66">
  <g id="A4_Document" data-name="A4 Document" transform="translate(0 -31)">
    <rect id="Rectangle_28" data-name="Rectangle 28" width="66" height="66" rx="16" transform="translate(0 31)" fill="#fff"/>
    <g id="Group_513" data-name="Group 513" transform="translate(1743.08 -2609.018)">
      <path id="Subtraction_41" data-name="Subtraction 41" d="M.8,26.29a.88.88,0,0,1-.547-.2.863.863,0,0,1-.24-.6L0,6.014a.985.985,0,0,1,.091-.33A1.875,1.875,0,0,1,.328,5.34L5.356.272A1.16,1.16,0,0,1,5.637.064.732.732,0,0,1,5.925,0H19.376a.707.707,0,0,1,.513.212A.8.8,0,0,1,20.1.75V25.426a.843.843,0,0,1-.206.6,1.057,1.057,0,0,1-.658.266H.8ZM1.546,6.728v18.01H18.489V1.557H6.776V5.8a.986.986,0,0,1-.236.692,1.109,1.109,0,0,1-.692.24h-4.3ZM5.2,2.629,2.647,5.181H5.2Z" transform="translate(-1720.08 2660.018)" fill="#2ec4b6"/>
      <path id="Union_30" data-name="Union 30" d="M11.5,8.021V6.632H8.735a.71.71,0,0,1-.61-.359,1,1,0,0,1,0-.826L10.753.9a1.568,1.568,0,0,1,1.164-.72,1.114,1.114,0,0,1,.266.033,1.227,1.227,0,0,1,.866,1.179V5.137h.309a.729.729,0,0,1,.673.774.681.681,0,0,1-.673.721h-.309V8.021a.771.771,0,0,1-.8.7A.707.707,0,0,1,11.5,8.021ZM10.129,5.09h1.413V2.625ZM.378,8.59C-.2,8.313.055,7.578.058,7.57L2.678.6A1.081,1.081,0,0,1,3.587,0H3.6a1.017,1.017,0,0,1,.874.637l2.6,6.933c0,.008.182.808-.387,1.019a.8.8,0,0,1-.28.054.862.862,0,0,1-.731-.53c-.121-.21-.473-1.165-.476-1.175H1.964l-.014.035c-.295.69-.488,1.124-.545,1.223a.86.86,0,0,1-.69.478A.776.776,0,0,1,.378,8.59ZM2.519,5.382H4.665L3.608,2.67Z" transform="translate(-1717.015 2668.81)" fill="#ff9f1c"/>
    </g>
  </g>
</svg>
