<svg xmlns="http://www.w3.org/2000/svg" xmlns:xlink="http://www.w3.org/1999/xlink" width="66" height="66" viewBox="0 0 66 66">
  <defs>
    <clipPath id="clip-path">
      <rect id="Rectangle_202" data-name="Rectangle 202" width="5" height="5" transform="translate(-1492 2609)" fill="#ff9f1c"/>
    </clipPath>
  </defs>
  <g id="Concept_Maps" data-name="Concept Maps" transform="translate(0 2)">
    <rect id="Rectangle_28" data-name="Rectangle 28" width="66" height="66" rx="16" transform="translate(0 -2)" fill="#fff"/>
    <g id="Group_504" data-name="Group 504" transform="translate(1526 -2581)">
      <path id="Subtraction_39" data-name="Subtraction 39" d="M23.728,24H3.272A3.3,3.3,0,0,1,0,20.69V3.31A3.3,3.3,0,0,1,3.272,0H23.728A3.3,3.3,0,0,1,27,3.31V20.69A3.3,3.3,0,0,1,23.728,24ZM3.232,5.846A1.724,1.724,0,0,0,1.52,7.578V20.561a1.723,1.723,0,0,0,1.712,1.731H23.768a1.723,1.723,0,0,0,1.712-1.731V7.578a1.724,1.724,0,0,0-1.712-1.732H3.232ZM6.333,2A.334.334,0,0,0,6,2.334,1.668,1.668,0,0,0,7.667,4H20.334A1.668,1.668,0,0,0,22,2.334.334.334,0,0,0,21.667,2H6.333Z" transform="translate(-1506 2600)" fill="#2ec4b6"/>
      <g id="Group_504-2" data-name="Group 504">
        <path id="Subtraction_38" data-name="Subtraction 38" d="M5,10a5,5,0,1,1,5-5A5.006,5.006,0,0,1,5,10ZM5,1A4,4,0,1,0,9,5,4.005,4.005,0,0,0,5,1Z" transform="translate(-1497 2609)" fill="#ff9f1c"/>
        <g id="Mask_Group_29" data-name="Mask Group 29" clip-path="url(#clip-path)">
          <circle id="Ellipse_80" data-name="Ellipse 80" cx="5" cy="5" r="5" transform="translate(-1497 2609)" fill="#ff9f1c"/>
        </g>
      </g>
    </g>
  </g>
</svg>
