<svg xmlns="http://www.w3.org/2000/svg" width="66" height="66" viewBox="0 0 66 66">
  <g id="Facebook_Cover" data-name="Facebook Cover" transform="translate(1 -31)">
    <rect id="Rectangle_28" data-name="Rectangle 28" width="66" height="66" rx="16" transform="translate(-1 31)" fill="#fff"/>
    <g id="facebook-app-logo-svgrepo-com" transform="translate(19.31 51.309)">
      <path id="Path_11432" data-name="Path 11432" d="M23.978,0H1.4A1.4,1.4,0,0,0,0,1.4V23.979a1.4,1.4,0,0,0,1.4,1.4H13.556V15.552H10.249V11.721h3.307V8.9c0-3.278,2-5.063,4.926-5.063a27.432,27.432,0,0,1,2.955.15V7.41H19.408c-1.59,0-1.9.756-1.9,1.865V11.72h3.794l-.5,3.83h-3.3V25.38h6.467a1.4,1.4,0,0,0,1.4-1.4V1.4A1.4,1.4,0,0,0,23.978,0Z" transform="translate(0)" fill="#2ec4b6"/>
      <path id="Path_11433" data-name="Path 11433" d="M27.831,30.719V20.89H24.524V17.059h3.307V14.234c0-3.278,2-5.063,4.926-5.063a27.432,27.432,0,0,1,2.955.15v3.426H33.684c-1.59,0-1.9.756-1.9,1.865v2.445H35.58l-.5,3.83h-3.3v9.829Z" transform="translate(-14.275 -5.338)" fill="#ff9f1c"/>
    </g>
  </g>
</svg>
