<svg xmlns="http://www.w3.org/2000/svg" width="66" height="66" viewBox="0 0 66 66">
  <g id="Proposals" transform="translate(0 2)">
    <rect id="Rectangle_28" data-name="Rectangle 28" width="66" height="66" rx="16" transform="translate(0 -2)" fill="#fff"/>
    <g id="proposal-icon" transform="translate(21 18)">
      <path id="Path_11343" data-name="Path 11343" d="M64.12,67.4a5.68,5.68,0,1,1-5.68,5.68A5.68,5.68,0,0,1,64.12,67.4Z" transform="translate(-46.474 -53.599)" fill="#ff9f1c" fill-rule="evenodd"/>
      <path id="Path_11344" data-name="Path 11344" d="M9.5,21.387a.577.577,0,1,1,0,1.155H1.345A1.345,1.345,0,0,1,0,21.2V1.337A1.341,1.341,0,0,1,.4.4a1.331,1.331,0,0,1,.95-.4H17.859A1.349,1.349,0,0,1,19.2,1.345V11.467a.579.579,0,1,1-1.157,0V1.345a.184.184,0,0,0-.055-.133.192.192,0,0,0-.133-.057H1.345a.185.185,0,0,0-.188.19V21.2a.18.18,0,0,0,.055.131.2.2,0,0,0,.135.057H9.5ZM4.871,13.31V12.142h8.543V13.31Zm0-3.8V8.342h9.462V9.5Zm0-3.8V4.54h9.462V5.7Zm0,11.418V15.945h5.137v1.169Z" transform="translate(0 0)" fill="#2ec4b6"/>
      <path id="Path_11345" data-name="Path 11345" d="M69.774,82.793l1.159-.016.086.023a4.517,4.517,0,0,1,.661.465,4.466,4.466,0,0,1,.426.41,16.585,16.585,0,0,1,1.327-1.843,15.793,15.793,0,0,1,1.636-1.7l.113-.043h1.265l-.256.283a27.026,27.026,0,0,0-2.146,2.7,26.465,26.465,0,0,0-1.728,2.867l-.158.307-.147-.311a7.523,7.523,0,0,0-.977-1.585,6.4,6.4,0,0,0-1.356-1.255l.094-.309Z" transform="translate(-55.412 -63.691)" fill="#fff"/>
      <path id="Path_11346" data-name="Path 11346" d="M4.871,13.31V12.142h8.543V13.31Zm0-7.6V4.54h9.462V5.7Z" transform="translate(0)" fill="#ff9f1c"/>
    </g>
  </g>
</svg>
