<svg xmlns="http://www.w3.org/2000/svg" width="66" height="66" viewBox="0 0 66 66">
  <g id="Tag" transform="translate(0 -31)">
    <rect id="Rectangle_28" data-name="Rectangle 28" width="66" height="66" rx="16" transform="translate(0 31)" fill="#fff"/>
    <g id="Group_507" data-name="Group 507" transform="translate(2082 -2709)">
      <path id="tags" d="M23.551,16.827l-.62.62a5.459,5.459,0,0,1-1.574,3.728l-3.474,3.519A5.446,5.446,0,0,1,14,26.325h-.019A5.446,5.446,0,0,1,10.1,24.719L1.967,16.654a3.276,3.276,0,0,1-.948-2.691l.839-7.586A1.1,1.1,0,0,1,2.8,5.411l7.556-1.033a3.31,3.31,0,0,1,2.773.933l8.2,8.13a5.476,5.476,0,0,1,1.021,1.413,3.3,3.3,0,0,0-.375-4.207L13.648,2.525a1.106,1.106,0,0,0-.933-.32L5.158,3.238a1.1,1.1,0,1,1-.3-2.173L12.417.031A3.291,3.291,0,0,1,15.19.965l8.324,8.122a5.5,5.5,0,0,1,.035,7.741ZM19.78,15l-8.2-8.13a1.115,1.115,0,0,0-.929-.315l-6.707.918L3.2,14.2a1.09,1.09,0,0,0,.315.9l8.134,8.065a3.266,3.266,0,0,0,2.329.966h.011a3.26,3.26,0,0,0,2.332-.98l3.474-3.519a3.3,3.3,0,0,0-.015-4.639Z" transform="translate(-2062 2760.001)" fill="#2ec4b6"/>
      <path id="tags-2" data-name="tags" d="M23.294,16.827l-.62.62h0l-.581-2.593.094-.142a3.257,3.257,0,0,0-.469-4.064L13.391,2.525a1.106,1.106,0,0,0-.933-.32L4.9,3.238a1.1,1.1,0,1,1-.3-2.173L12.16.031a3.291,3.291,0,0,1,2.773.935l8.324,8.122a5.5,5.5,0,0,1,.035,7.741Z" transform="translate(-2061.742 2760.001)" fill="#ff9f1c"/>
      <path id="tags-3" data-name="tags" d="M9.813,9.618a2.233,2.233,0,1,1-3.158,0,2.231,2.231,0,0,1,3.158,0Z" transform="translate(-2062.652 2759.732)" fill="#ff9f1c"/>
    </g>
  </g>
</svg>
