<svg xmlns="http://www.w3.org/2000/svg" width="66" height="66" viewBox="0 0 66 66">
  <g id="Wall_Calendar" data-name="Wall Calendar" transform="translate(0 -31)">
    <rect id="Rectangle_28" data-name="Rectangle 28" width="66" height="66" rx="16" transform="translate(0 31)" fill="#fff"/>
    <g id="wall-calendars-flipping-pages-svgrepo-com" transform="translate(18.36 51)">
      <g id="Group_519" data-name="Group 519" transform="translate(1.64 0)">
        <path id="Path_11414" data-name="Path 11414" d="M106.04,3.06c-1.982-3.159-7.123-4.39-9.63-1.171a.719.719,0,0,0-.126.247l-5.394-.813.127,2.048a.659.659,0,0,1,.49-.116l16.3,2.558V24.385a.662.662,0,0,1-.273.535l2.074.675V4.143L106.1,3.614A.586.586,0,0,0,106.04,3.06Zm-8.253-.7c1.965-1.818,5.28-1.047,6.863,1.034Z" transform="translate(-83.553 0)" fill="#2ec4b6"/>
        <path id="Path_11415" data-name="Path 11415" d="M82.352,68.915a.555.555,0,0,0,.458.638l13.365,2.189v15.22a.555.555,0,1,0,1.11,0V70.8l-14.3-2.341A.553.553,0,0,0,82.352,68.915Z" transform="translate(-75.709 -62.821)" fill="#2ec4b6"/>
        <path id="Path_11416" data-name="Path 11416" d="M120.372,70.7c.014,0,.026.008.039.008a.546.546,0,0,0,.527-.416.539.539,0,0,0,.028-.139V53.1l-14.3-2.341a.574.574,0,0,0-.637.458c0,.022,0,.043,0,.065a.549.549,0,0,0,.456.573l13.365,2.188V70.152A.55.55,0,0,0,120.372,70.7Z" transform="translate(-97.449 -46.58)" fill="#ff9f1c"/>
        <path id="Path_11417" data-name="Path 11417" d="M16.017,105.483C18.3,103.1,20.991,90.863,21.1,90.343l.118-.541L6.514,86.545l.138.813c.622,3.667-4.6,11.958-4.657,12.041l-.355.559,14.116,5.8ZM3.278,99.432c1.123-1.859,4.532-7.8,4.531-11.463L19.9,90.647c-.817,3.623-2.846,11.571-4.449,13.783Z" transform="translate(-1.64 -79.429)" fill="#ff9f1c"/>
      </g>
    </g>
  </g>
</svg>
