<svg id="Website" xmlns="http://www.w3.org/2000/svg" width="66" height="66" viewBox="0 0 66 66">
  <rect id="Rectangle_28" data-name="Rectangle 28" width="66" height="66" rx="16" fill="#fff"/>
  <g id="Group_444" data-name="Group 444" transform="translate(13 20)">
    <path id="Subtraction_24" data-name="Subtraction 24" d="M12.89,26.861c-.054,0-.108,0-.163-.007l-.061,0H12.66a13.37,13.37,0,0,1-9.1-3.768A13.6,13.6,0,0,1,1.384,20.36,13.232,13.232,0,0,1,0,17.223H1.388a11.968,11.968,0,0,0,2.68,4.486,14.151,14.151,0,0,1,2.983-1.823,16.166,16.166,0,0,1-.909-2.663H7.509A14.876,14.876,0,0,0,8.282,19.4a14.129,14.129,0,0,1,3.946-.761V17.223h1.324v1.412A14.13,14.13,0,0,1,17.5,19.4a14.889,14.889,0,0,0,.773-2.174h1.367a16.154,16.154,0,0,1-.909,2.663,14.179,14.179,0,0,1,2.984,1.823,11.965,11.965,0,0,0,2.679-4.486H25.78A13.233,13.233,0,0,1,24.4,20.36a13.6,13.6,0,0,1-2.178,2.722,13.373,13.373,0,0,1-9.1,3.768h-.006l-.06,0C13,26.857,12.944,26.861,12.89,26.861Zm5.256-5.786a16.162,16.162,0,0,1-3.389,4.309,12.044,12.044,0,0,0,5.987-2.752,12.827,12.827,0,0,0-2.6-1.557Zm-10.513,0h0a12.826,12.826,0,0,0-2.6,1.557,12.041,12.041,0,0,0,5.987,2.752,16.147,16.147,0,0,1-3.389-4.309Zm4.595-1.115a12.811,12.811,0,0,0-3.349.632,14.8,14.8,0,0,0,3.349,4.088V19.96Zm1.324,0h0v4.72A14.814,14.814,0,0,0,16.9,20.592a12.811,12.811,0,0,0-3.348-.632ZM25.77,9.638H24.382A12.187,12.187,0,0,0,21.26,4.7a14.16,14.16,0,0,1-2.832,1.6,16.122,16.122,0,0,1,1.212,3.334H18.273a14.79,14.79,0,0,0-1.095-2.872,14.167,14.167,0,0,1-3.626.66V9.638H12.228V7.426A14.174,14.174,0,0,1,8.6,6.766,14.789,14.789,0,0,0,7.507,9.638H6.14A16.125,16.125,0,0,1,7.352,6.3,14.143,14.143,0,0,1,4.52,4.7,12.187,12.187,0,0,0,1.4,9.638H.01A13.451,13.451,0,0,1,4.033,3.351l.023-.02A13.426,13.426,0,0,1,12.652.011h.026l.055,0c.043,0,.1-.007.158-.007s.115,0,.158.007l.05,0h.034a13.427,13.427,0,0,1,8.589,3.318l.025.022A13.452,13.452,0,0,1,25.77,9.638ZM13.552,2.179V6.1a12.813,12.813,0,0,0,2.958-.514,14.9,14.9,0,0,0-2.958-3.407Zm-1.324,0A14.9,14.9,0,0,0,9.27,5.586a12.814,12.814,0,0,0,2.958.514V2.179Zm-1.21-.7A12.14,12.14,0,0,0,5.557,3.813,12.853,12.853,0,0,0,7.992,5.136a16.2,16.2,0,0,1,3.027-3.657Zm3.743,0a16.186,16.186,0,0,1,3.026,3.657,12.84,12.84,0,0,0,2.435-1.323,12.138,12.138,0,0,0-5.461-2.334Z" transform="translate(6.757)" fill="#2ec4b6" stroke="rgba(0,0,0,0)" stroke-miterlimit="10" stroke-width="1"/>
    <g id="Group_488" data-name="Group 488" transform="translate(0 9)">
      <g id="Group_486" data-name="Group 486">
        <path id="Path_11281" data-name="Path 11281" d="M165.242,232.132h-30.56a4.367,4.367,0,1,1,0-8.733h30.56a4.367,4.367,0,1,1,0,8.733Zm-30.56-7.584a3.218,3.218,0,1,0,0,6.435h30.56a3.218,3.218,0,1,0,0-6.435Z" transform="translate(-130.315 -223.399)" fill="#ff9f1c"/>
      </g>
      <text id="http:_www." data-name="http://www." transform="translate(6 6)" fill="#ff9f1c" font-size="4" font-family="Montserrat-Black, Montserrat" font-weight="800" letter-spacing="0.05em"><tspan x="0" y="0">http://www.</tspan></text>
    </g>
  </g>
</svg>
