<svg xmlns="http://www.w3.org/2000/svg" width="66" height="66" viewBox="0 0 66 66">
  <g id="Worksheets" transform="translate(0 2)">
    <rect id="Rectangle_28" data-name="Rectangle 28" width="66" height="66" rx="16" transform="translate(0 -2)" fill="#fff"/>
    <g id="Group_491" data-name="Group 491" transform="translate(1411 -2487)">
      <path id="Subtraction_31" data-name="Subtraction 31" d="M17.528,27H2.255A2.253,2.253,0,0,1,0,24.745V2.257A2.253,2.253,0,0,1,2.255,0H13.174c.012,0,.046,0,.1,0a2.57,2.57,0,0,1,.788.118,1.9,1.9,0,0,1,.5.265,1.633,1.633,0,0,1,.186.157l4.509,4.969h0a1.63,1.63,0,0,1,.15.193,2.117,2.117,0,0,1,.257.528,3.3,3.3,0,0,1,.122.975h0v1.12L18.339,9.758V7.682h-4.9a1.177,1.177,0,0,1-.214-.03.816.816,0,0,1-.375-.185.713.713,0,0,1-.187-.343.866.866,0,0,1-.026-.188V1.5H2.317a.784.784,0,0,0-.874.814V24.624a.933.933,0,0,0,.932.932H17.407a.933.933,0,0,0,.932-.932V19.958l1.443-1.44v6.227A2.253,2.253,0,0,1,17.528,27ZM14.27,2.339v3.7L17.7,5.976Z" transform="translate(-1392 2505)" fill="#2ec4b6"/>
      <path id="Subtraction_30" data-name="Subtraction 30" d="M6.594,9.5H.841a.721.721,0,0,1,0-1.443H7.96l-.04.04L6.594,9.5Zm3.972-4.028H.722a.722.722,0,1,1,0-1.444H11.3a.717.717,0,0,1,.507.208L10.566,5.472ZM6.193,1.443H.722A.721.721,0,1,1,.722,0H6.193a.721.721,0,1,1,0,1.443Z" transform="translate(-1388.212 2513.239)" fill="#ff9f1c"/>
      <path id="Subtraction_29" data-name="Subtraction 29" d="M.476,16.416A.463.463,0,0,1,.128,16.3c-.148-.154-.167-.443-.058-.857A8.229,8.229,0,0,1,.946,13.55a14.1,14.1,0,0,1,.892-1.312c.3-.393.636-.818,1.012-1.265.639-.758,1.169-1.323,1.174-1.329L12.961.762a3.386,3.386,0,0,1,.518-.381,2.975,2.975,0,0,1,.547-.262A1.969,1.969,0,0,1,14.677,0a1.556,1.556,0,0,1,1.2.585A2.024,2.024,0,0,1,16.385,1.6a1.764,1.764,0,0,1-.088.863,2.38,2.38,0,0,1-.319.6,1.975,1.975,0,0,1-.187.224l-.775.808.606.589.64-.589a.624.624,0,0,1,.343-.129.374.374,0,0,1,.3.157.467.467,0,0,1,.1.251.525.525,0,0,1-.032.224.75.75,0,0,1-.127.222L11.9,9.787a.745.745,0,0,1-.375.126.389.389,0,0,1-.292-.126.37.37,0,0,1-.1-.227.532.532,0,0,1,.034-.224.912.912,0,0,1,.131-.239l3.519-3.57L14.207,4.9,6.513,12.565c-.005,0-.533.494-1.246,1.088-.42.35-.821.667-1.193.945a13.891,13.891,0,0,1-1.25.843A5.909,5.909,0,0,1,.476,16.416ZM6.6,8.726h0c-.024.023-2.437,2.347-3.738,3.906a11.118,11.118,0,0,0-1.26,1.8,3.181,3.181,0,0,0-.272.612,6.789,6.789,0,0,0,.913-.44,10.547,10.547,0,0,0,2.05-1.513c1.5-1.414,3.332-3.281,3.351-3.3L6.6,8.726Zm5.679-5.715h0l-4.9,4.9L8.484,8.99l4.883-4.922L12.276,3.011ZM14.54,1.159a1.227,1.227,0,0,0-.686.276l-.707.758,1.061,1.078.842-.808a1.219,1.219,0,0,0,.16-.382A.744.744,0,0,0,15,1.347.65.65,0,0,0,14.54,1.159Z" transform="translate(-1381.936 2511.831)" fill="#2ec4b6"/>
      <path id="Path_11305" data-name="Path 11305" d="M-1184.979,2637.852a.416.416,0,0,0,.28.464c.224.069.469-.176.516-.264s.89-2.5,1.739-2.411-.713,2.211-.071,3.03,1.7-.478,2.305-.578a.983.983,0,0,1,.973.513.373.373,0,0,0,.442.1.461.461,0,0,0,.094-.654,1.485,1.485,0,0,0-1.438-.814c-.926.006-1.515.9-1.668.814s.236-1.073.466-1.651-.167-1.552-.837-1.609a1.787,1.787,0,0,0-1.78.9A6.34,6.34,0,0,0-1184.979,2637.852Z" transform="translate(-203.201 -110.401)" fill="#ff9f1c"/>
      <path id="Path_11306" data-name="Path 11306" d="M-1049.422,2436.494l.64-.589s.38-.308.645.028a.562.562,0,0,1-.056.7l-4.95,4.967s-.4.282-.667,0,.061-.69.061-.69l3.519-3.57Z" transform="translate(-316.891 80.022)" fill="#ff9f1c"/>
    </g>
  </g>
</svg>
