<svg xmlns="http://www.w3.org/2000/svg" width="66" height="66" viewBox="0 0 66 66">
  <g id="YouTube_Intro" data-name="YouTube Intro" transform="translate(0 -31)">
    <rect id="Rectangle_28" data-name="Rectangle 28" width="66" height="66" rx="16" transform="translate(0 31)" fill="#fff"/>
    <g id="YouTube_Logo_2017" transform="translate(-163.421 182)">
      <g id="Group_509" data-name="Group 509" transform="translate(188.086 -130)">
        <path id="Path_11389" data-name="Path 11389" d="M16.365,1.827A2.093,2.093,0,0,0,14.887.349,49.914,49.914,0,0,0,8.357,0a49.914,49.914,0,0,0-6.53.349A2.093,2.093,0,0,0,.349,1.827,21.736,21.736,0,0,0,0,5.85,21.737,21.737,0,0,0,.349,9.874a2.093,2.093,0,0,0,1.478,1.478,49.912,49.912,0,0,0,6.53.35,49.911,49.911,0,0,0,6.53-.35,2.093,2.093,0,0,0,1.478-1.478,21.735,21.735,0,0,0,.35-4.023A21.865,21.865,0,0,0,16.365,1.827Z" transform="translate(0 0)" fill="#2ec4b6"/>
        <path id="Path_11390" data-name="Path 11390" d="M65.3,37.677l4.342-2.507L65.3,32.663Z" transform="translate(-58.612 -29.32)" fill="#ff9f1c"/>
      </g>
      <g id="Group_510" data-name="Group 510" transform="translate(179.421 -116.232)">
        <g id="youtube-paths" transform="translate(0 0)">
          <path id="Path_11391" data-name="Path 11391" d="M181.3,14.884l-1.877-6.778h1.637l.658,3.072q.252,1.135.37,1.936h.048q.083-.574.37-1.925l.681-3.083h1.637l-1.9,6.778v3.251H181.3V14.884Z" transform="translate(-179.421 -7.736)" fill="#2ec4b6"/>
          <path id="Path_11392" data-name="Path 11392" d="M228.978,40.36a1.829,1.829,0,0,1-.706-1.04,6.829,6.829,0,0,1-.209-1.877V36.379a6.158,6.158,0,0,1,.239-1.9,1.909,1.909,0,0,1,.747-1.046,2.422,2.422,0,0,1,1.333-.329,2.275,2.275,0,0,1,1.3.334,1.922,1.922,0,0,1,.717,1.046,6.42,6.42,0,0,1,.227,1.895v1.064a6.52,6.52,0,0,1-.221,1.882,1.846,1.846,0,0,1-.717,1.04,2.941,2.941,0,0,1-2.713-.006Zm1.852-1.148a3.591,3.591,0,0,0,.138-1.171V35.758a3.506,3.506,0,0,0-.138-1.153.492.492,0,0,0-.484-.365.484.484,0,0,0-.472.365,3.512,3.512,0,0,0-.138,1.153v2.283a3.7,3.7,0,0,0,.132,1.171.48.48,0,0,0,.477.359A.492.492,0,0,0,230.83,39.212Z" transform="translate(-223.084 -30.175)" fill="#2ec4b6"/>
          <path id="Path_11393" data-name="Path 11393" d="M285.5,41.821h-1.291l-.143-.9h-.036a1.688,1.688,0,0,1-1.578,1.015,1.242,1.242,0,0,1-1.076-.477,2.569,2.569,0,0,1-.347-1.494V34.493h1.65v5.378a1.64,1.64,0,0,0,.107.7.373.373,0,0,0,.359.209.734.734,0,0,0,.413-.132.824.824,0,0,0,.293-.334V34.491H285.5Z" transform="translate(-270.631 -31.42)" fill="#2ec4b6"/>
          <path id="Path_11394" data-name="Path 11394" d="M325.613,9.444h-1.637v8.7h-1.614v-8.7h-1.637V8.118h4.889Z" transform="translate(-306.259 -7.746)" fill="#ff9f1c"/>
          <path id="Path_11395" data-name="Path 11395" d="M368.151,41.821H366.86l-.143-.9h-.036a1.688,1.688,0,0,1-1.578,1.015,1.242,1.242,0,0,1-1.076-.477,2.569,2.569,0,0,1-.347-1.494V34.493h1.65v5.378a1.64,1.64,0,0,0,.107.7.373.373,0,0,0,.359.209.734.734,0,0,0,.413-.132.823.823,0,0,0,.293-.334V34.491h1.648Z" transform="translate(-344.818 -31.42)" fill="#ff9f1c"/>
          <path id="Path_11396" data-name="Path 11396" d="M421.533,8.733a1.893,1.893,0,0,0-.484-1,1.3,1.3,0,0,0-.921-.311,1.522,1.522,0,0,0-.849.257,1.747,1.747,0,0,0-.61.676h-.012V4.49h-1.589v10.4h1.362l.168-.693h.036a1.409,1.409,0,0,0,.574.586,1.7,1.7,0,0,0,.849.215,1.3,1.3,0,0,0,1.231-.771,5.553,5.553,0,0,0,.395-2.409v-1.16A9.653,9.653,0,0,0,421.533,8.733Zm-1.512,2.99a9.21,9.21,0,0,1-.066,1.255,1.342,1.342,0,0,1-.221.645.51.51,0,0,1-.418.191.758.758,0,0,1-.377-.1.721.721,0,0,1-.281-.286V9.273a1.032,1.032,0,0,1,.288-.49.632.632,0,0,1,.442-.191.445.445,0,0,1,.388.2,1.507,1.507,0,0,1,.191.663,12.4,12.4,0,0,1,.054,1.326v.945Z" transform="translate(-392.74 -4.49)" fill="#ff9f1c"/>
          <path id="Path_11397" data-name="Path 11397" d="M470.871,37.856a9.9,9.9,0,0,0,.041,1.058,1,1,0,0,0,.173.515.494.494,0,0,0,.406.161A.511.511,0,0,0,472,39.3a2.489,2.489,0,0,0,.15-.956l1.423.084a2.161,2.161,0,0,1,.012.263,1.945,1.945,0,0,1-.556,1.518,2.264,2.264,0,0,1-1.571.5,1.868,1.868,0,0,1-1.709-.765,4.476,4.476,0,0,1-.49-2.367V36.3a4.438,4.438,0,0,1,.508-2.409,1.935,1.935,0,0,1,1.739-.76,2.294,2.294,0,0,1,1.3.311,1.67,1.67,0,0,1,.64.969,6.987,6.987,0,0,1,.186,1.818v1.255h-2.763Zm.209-3.454a1.012,1.012,0,0,0-.168.508,10.059,10.059,0,0,0-.041,1.07v.526h1.207V35.98a8.943,8.943,0,0,0-.048-1.07,1.023,1.023,0,0,0-.173-.515.481.481,0,0,0-.388-.15A.472.472,0,0,0,471.08,34.4Z" transform="translate(-439.588 -30.2)" fill="#ff9f1c"/>
        </g>
      </g>
    </g>
  </g>
</svg>
