<svg xmlns="http://www.w3.org/2000/svg" width="66" height="66" viewBox="0 0 66 66">
  <g id="Certificates" transform="translate(0 -31)">
    <rect id="Rectangle_28" data-name="Rectangle 28" width="66" height="66" rx="16" transform="translate(0 31)" fill="#fff"/>
    <g id="diploma-svgrepo-com" transform="translate(20 51)">
      <path id="Path_11437" data-name="Path 11437" d="M18.453,13.45a.616.616,0,0,0,0-.542l-.782-1.14a.13.13,0,0,1,0-.147l.784-1.143a.616.616,0,0,0,0-.542.654.654,0,0,0-.385-.387l-1.344-.491a.149.149,0,0,1-.1-.113V7.573a.631.631,0,0,0-.276-.488.665.665,0,0,0-.377-.116h-.278l-1.388.359a.155.155,0,0,1-.057.011.171.171,0,0,1-.059-.011l-.9-1.061a.7.7,0,0,0-1.029,0l-.9,1.061a.155.155,0,0,1-.057.011.171.171,0,0,1-.059-.011h0L9.783,6.952H9.607a.681.681,0,0,0-.382.116.633.633,0,0,0-.274.487V8.928a.15.15,0,0,1-.1.114l-1.34.49a.658.658,0,0,0-.488.372.616.616,0,0,0,0,.545l.782,1.14a.13.13,0,0,1,0,.147l-.784,1.143a.616.616,0,0,0,0,.542.654.654,0,0,0,.385.387l1.344.491a.149.149,0,0,1,.1.113v1.373a.631.631,0,0,0,.276.488.681.681,0,0,0,.382.116h.274l.506-.114V22.3l2.5-3.265,2.4,3.265V16.275l.506.131h.193a.681.681,0,0,0,.382-.116.633.633,0,0,0,.274-.487V14.43a.15.15,0,0,1,.1-.114l1.34-.49a.661.661,0,0,0,.472-.371Z" transform="translate(4.405 3.19)" fill="#ff9f1c"/>
      <path id="Path_11438" data-name="Path 11438" d="M0,1V20.592H13.061l-.18-.082a1.847,1.847,0,0,1-.8-1.416v-.136H1.633V2.633H24.49V18.959H22.155v.131a1.852,1.852,0,0,1-.793,1.417l-.137.085h4.9V1Z" fill="#2ec4b6"/>
      <path id="Path_11439" data-name="Path 11439" d="M10.233,7.488a1.843,1.843,0,0,1,.793-1.482A.23.23,0,0,1,11.1,6,.3.3,0,0,1,11.165,6H3V7.635h7.233V7.488Z" transform="translate(1.898 3.161)" fill="#2ec4b6"/>
      <path id="Path_11440" data-name="Path 11440" d="M8.584,8H3V9.633H8.486a1.633,1.633,0,0,1-.077-1.367A.477.477,0,0,1,8.584,8Z" transform="translate(1.898 4.429)" fill="#ff9f1c"/>
      <path id="Path_11441" data-name="Path 11441" d="M3,4H19.326V5.633H3Z" transform="translate(1.898 1.898)" fill="#ff9f1c"/>
    </g>
  </g>
</svg>
