<svg xmlns="http://www.w3.org/2000/svg" width="66" height="66" viewBox="0 0 66 66">
  <g id="Facebook_Post" data-name="Facebook Post" transform="translate(0 -31)">
    <rect id="Rectangle_28" data-name="Rectangle 28" width="66" height="66" rx="16" transform="translate(0 31)" fill="#fff"/>
    <g id="facebook-overlapping-logo-svgrepo-com" transform="translate(19 48.44)">
      <g id="Group_526" data-name="Group 526" transform="translate(0 3.56)">
        <path id="Path_11426" data-name="Path 11426" d="M7.464,7.921H19.742V3.56H0V23.092H7.464Z" transform="translate(0 -3.56)" fill="#ff9f1c"/>
        <path id="Path_11427" data-name="Path 11427" d="M18.29,15.176V34.708h9.772V27.941H25.428V24.89h2.633V22.642a3.674,3.674,0,0,1,3.921-4.032,21.946,21.946,0,0,1,2.353.12v2.728H32.721c-1.265,0-1.511.6-1.511,1.483V24.89h3.018l-.393,3.05H31.21v6.768h6.819V15.176Z" transform="translate(-9.783 -9.773)" fill="#2ec4b6"/>
      </g>
    </g>
  </g>
</svg>
