<svg xmlns="http://www.w3.org/2000/svg" width="66" height="66" viewBox="0 0 66 66">
  <g id="Flyer" transform="translate(0 -31)">
    <rect id="Rectangle_28" data-name="Rectangle 28" width="66" height="66" rx="16" transform="translate(0 31)" fill="#fff"/>
    <g id="Group_511" data-name="Group 511" transform="translate(1889.44 -2602)">
      <path id="leaflet-icon" d="M17.759,3.772,8.91.839v19.68l8.849,3.833Zm2.6,14.5a.373.373,0,0,1-.336-.666l4.293-2.17a.373.373,0,0,1,.336.666l-4.3,2.17Zm0-5.092a.371.371,0,1,1-.345-.658l4.3-2.19a.373.373,0,1,1,.336.666l-4.293,2.17Zm-18,5.719a.4.4,0,0,1-.362-.718l4.621-2.348a.4.4,0,1,1,.362.718L2.342,18.9Zm0-5.491a.4.4,0,0,1-.362-.718l4.621-2.348a.407.407,0,0,1,.362.729l-4.63,2.34ZM18.113,3.144,26.191.023a.354.354,0,0,1,.456.2.369.369,0,0,1,.024.126v20.4a.354.354,0,0,1-.217.326L18.271,25.2a.349.349,0,0,1-.315,0L8.569,21.135.51,25.2a.352.352,0,0,1-.471-.156A.343.343,0,0,1,0,24.886V3.515a.354.354,0,0,1,.254-.339L8.408.032a.358.358,0,0,1,.26-.015L18.1,3.142ZM25.965.867l-7.5,2.889V24.309l7.5-3.777ZM8.2.867.705,3.756V24.309l7.5-3.777Z" transform="translate(-1869.44 2653.001)" fill="#2ec4b6"/>
      <path id="leaflet-icon-2" data-name="leaflet-icon" d="M22.59,9.613l4.688-1.808v5.359L22.59,15.528Zm-3.41-.1-6-1.986V24.194l5.995,2.657V9.511Zm4.013,15.953a.373.373,0,0,1-.336-.666l4.291-2.179a.373.373,0,1,1,.336.664l-4.293,2.17Zm0-5.092a.373.373,0,0,1-.336-.666l4.293-2.17a.373.373,0,0,1,.336.666l-4.3,2.17Zm-18,5.919a.4.4,0,1,1-.362-.716l4.621-2.351a.4.4,0,1,1,.362.718L5.18,26.293Zm0-5.491a.4.4,0,1,1-.362-.718l4.621-2.348a.4.4,0,1,1,.362.718L5.18,20.8ZM4.959,9.806,9.647,8v5.357l-4.7,2.361V9.8Z" transform="translate(-1872.26 2648.433)" fill="#ff9f1c"/>
    </g>
  </g>
</svg>
