<svg xmlns="http://www.w3.org/2000/svg" width="66" height="66" viewBox="0 0 66 66">
  <g id="Invitation" transform="translate(1 -31)">
    <rect id="Rectangle_28" data-name="Rectangle 28" width="66" height="66" rx="16" transform="translate(-1 31)" fill="#fff"/>
    <g id="Group_524" data-name="Group 524" transform="translate(1738.784 -2656.778)">
      <path id="rsvp-icon" d="M24.155,9.161a.8.8,0,0,1,.533-.2c.623,0,1.1.729,1.1,1.3V23.806a1.246,1.246,0,0,1-1.24,1.239H1.239A1.246,1.246,0,0,1,0,23.806V10.255c0-.566.466-1.3,1.1-1.3a.774.774,0,0,1,.426.124V.6a.6.6,0,0,1,.6-.6H19.158a.6.6,0,0,1,.461.216l4.366,3.937a.6.6,0,0,1,.17.417h0V9.161Zm-6.5,2.764H8.131v-.95h9.522ZM18.96,1.13H2.722v9.008l10.044,8.339,10.189-8.268v-5.5l-4-3.582Zm5.624,21.045v-11.8l-7.829,6.206ZM8.923,16.646,1.2,10.382V22.147l7.723-5.5Zm3.441,3.074L9.822,17.449,1.2,23.737v.069a.04.04,0,0,0,.01.027l0,0a.039.039,0,0,0,.027.01h23.3a.041.041,0,0,0,.028-.01h0l0,0a.036.036,0,0,0,.01-.027v-.041l-8.738-6.391-2.69,2.351h0a.6.6,0,0,1-.792,0Z" transform="translate(-1719.784 2707.778)" fill="#ff9f1c"/>
      <path id="rsvp-icon-2" data-name="rsvp-icon" d="M24.155,9.161a1.545,1.545,0,0,1,.533-.2c.623,0,1.1.729,1.1,1.3V23.806a1.246,1.246,0,0,1-1.24,1.239H1.239A1.246,1.246,0,0,1,0,23.806V10.255c0-.566.466-1.3,1.1-1.3a1.5,1.5,0,0,1,.426.124l1.2,1.057,20.233.071,1.2-1.048Zm-21.433.977,10.044,8.339,10.189-8.268ZM24.584,22.175v-11.8l-7.829,6.206ZM8.923,16.646,1.2,10.382V22.147l7.723-5.5Zm3.441,3.074L9.822,17.449l-.9-.8L1.2,22.147v1.659a.04.04,0,0,0,.01.027l0,0a.039.039,0,0,0,.027.01h23.3a.041.041,0,0,0,.028-.01h0l0,0a.036.036,0,0,0,.01-.027V22.175l-7.829-5.594-.909.793-2.69,2.351h0a.6.6,0,0,1-.792,0Z" transform="translate(-1719.784 2707.778)" fill="#2ec4b6"/>
      <text id="Invitation-2" data-name="Invitation" transform="translate(-1715 2716)" fill="#ff9f1c" font-size="2.4" font-family="Montserrat-Bold, Montserrat" font-weight="700" letter-spacing="0.05em"><tspan x="0" y="0">INVITATION</tspan></text>
    </g>
  </g>
</svg>
