<svg xmlns="http://www.w3.org/2000/svg" width="66" height="66" viewBox="0 0 66 66">
  <g id="Invoice" transform="translate(0 -31)">
    <rect id="Rectangle_28" data-name="Rectangle 28" width="66" height="66" rx="16" transform="translate(0 31)" fill="#fff"/>
    <g id="Group_508" data-name="Group 508" transform="translate(2037 -2701)">
      <path id="file-invoice-dollar" d="M16,23a1,1,0,0,1-1,1H6a5.006,5.006,0,0,1-5-5V5A5.006,5.006,0,0,1,6,0h4.515a6.958,6.958,0,0,1,4.95,2.05l3.484,3.486a7.037,7.037,0,0,1,.748.883A1,1,0,1,1,18.07,7.581a4.978,4.978,0,0,0-.534-.63L14.051,3.465A5.011,5.011,0,0,0,13,2.66V7a1,1,0,0,0,1,1h3a1,1,0,0,1,0,2H14a3,3,0,0,1-3-3V2.023C10.84,2.008,10.678,2,10.515,2H6A3,3,0,0,0,3,5V19a3,3,0,0,0,3,3h9A1,1,0,0,1,16,23Zm5.685-6.733-3.041-.507A.768.768,0,0,1,18,15a1,1,0,0,1,1-1h2.268a1.007,1.007,0,0,1,.867.5,1,1,0,1,0,1.73-1,3.009,3.009,0,0,0-2.6-1.5H21V11a1,1,0,0,0-2,0v1a3,3,0,0,0-3,3,2.762,2.762,0,0,0,2.315,2.733l3.041.507A.768.768,0,0,1,22,19a1,1,0,0,1-1,1H18.731a1.007,1.007,0,0,1-.867-.5,1,1,0,1,0-1.73,1,3.008,3.008,0,0,0,2.6,1.5H19v1a1,1,0,0,0,2,0V22a3,3,0,0,0,3-3,2.762,2.762,0,0,0-2.315-2.733ZM7.5,15H13a1,1,0,0,0,0-2H7.5A2.5,2.5,0,0,0,5,15.5v2A2.5,2.5,0,0,0,7.5,20H13a1,1,0,0,0,0-2H7.5a.5.5,0,0,1-.5-.5v-2a.5.5,0,0,1,.5-.5ZM6,11H8A1,1,0,0,0,8,9H6a1,1,0,0,0,0,2ZM6,7H8A1,1,0,0,0,8,5H6A1,1,0,0,0,6,7Z" transform="translate(-2017 2753)" fill="#2ec4b6"/>
      <path id="file-invoice-dollar-2" data-name="file-invoice-dollar" d="M21.685,16.267l-3.041-.507A.768.768,0,0,1,18,15a1,1,0,0,1,1-1h2.268a1.007,1.007,0,0,1,.867.5,1,1,0,1,0,1.73-1,3.009,3.009,0,0,0-2.6-1.5H21V11a1,1,0,0,0-2,0v1a3,3,0,0,0-3,3,2.762,2.762,0,0,0,2.315,2.733l3.041.507A.768.768,0,0,1,22,19a1,1,0,0,1-1,1H18.731a1.007,1.007,0,0,1-.867-.5,1,1,0,1,0-1.73,1,3.008,3.008,0,0,0,2.6,1.5H19v1a1,1,0,0,0,2,0V22a3,3,0,0,0,3-3,2.762,2.762,0,0,0-2.315-2.733ZM7.5,15H13a1,1,0,0,0,0-2H7.5A2.5,2.5,0,0,0,5,15.5v2A2.5,2.5,0,0,0,7.5,20H13a1,1,0,0,0,0-2H7.5a.5.5,0,0,1-.5-.5v-2a.5.5,0,0,1,.5-.5ZM6,7H8A1,1,0,0,0,8,5H6A1,1,0,0,0,6,7Z" transform="translate(-2017 2753)" fill="#ff9f1c"/>
    </g>
  </g>
</svg>
