<svg xmlns="http://www.w3.org/2000/svg" width="66" height="66" viewBox="0 0 66 66">
  <g id="Landscape_Card" data-name="Landscape Card" transform="translate(1 -31)">
    <rect id="Rectangle_28" data-name="Rectangle 28" width="66" height="66" rx="16" transform="translate(-1 31)" fill="#fff"/>
    <g id="Group_522" data-name="Group 522" transform="translate(1893 -2674)">
      <g id="business-card-icon" transform="translate(-1875 2729)">
        <path id="Path_11419" data-name="Path 11419" d="M1.668,0H27.127a1.663,1.663,0,0,1,1.179.49l.035.037A1.662,1.662,0,0,1,28.8,1.666v15.6a1.662,1.662,0,0,1-.49,1.176h0a1.663,1.663,0,0,1-1.179.49H1.668a1.662,1.662,0,0,1-1.176-.49h0A1.637,1.637,0,0,1,0,17.265V1.668A1.662,1.662,0,0,1,.49.492h0A1.656,1.656,0,0,1,1.668,0Zm14.3,10.305c-.23,0-.415-.248-.415-.553s.185-.553.415-.553h8.86c.23,0,.415.248.415.553s-.185.553-.415.553Zm11.161-9.2H1.668a.564.564,0,0,0-.4.164h0a.56.56,0,0,0-.164.4v15.6a.568.568,0,0,0,.164.4h0a.56.56,0,0,0,.4.164H27.127a.56.56,0,0,0,.4-.166h0a.56.56,0,0,0,.164-.4V1.668a.556.556,0,0,0-.143-.375l-.021-.021a.572.572,0,0,0-.4-.166Z" transform="translate(0 0)" fill="#2ec4b6" fill-rule="evenodd"/>
      </g>
      <g id="business-card-icon-2" data-name="business-card-icon" transform="translate(-1871.927 2732.965)">
        <path id="Path_11419-2" data-name="Path 11419" d="M19.639,24.259c.553.478,2.137.576,2.727.907a1.6,1.6,0,0,1,.5.419,3.935,3.935,0,0,1,.494,1.565.545.545,0,0,1-.572.534h-3.8c0-.087,0-.171,0-.255l-.546-1.9.267-.293a.488.488,0,0,0,.094-.384c-.091-.368-.455-.312-.75-.312s-.581-.054-.726.234a.445.445,0,0,0,.08.464l.267.293-.546,1.9c.012.087.023.171.035.255h-3.7a.548.548,0,0,1-.572-.534,3.935,3.935,0,0,1,.494-1.565,1.573,1.573,0,0,1,.5-.419c.581-.326,2.123-.426,2.7-.883.087-.19.176-.457.232-.626,0-.009,0,.014.023-.07.063-.192-.316-.567-.443-.771l-.473-.752a1.36,1.36,0,0,1-.267-.687.525.525,0,0,1,.047-.246.466.466,0,0,1,.162-.19.587.587,0,0,1,.115-.059,12.262,12.262,0,0,1-.023-1.35,1.771,1.771,0,0,1,.059-.307,1.981,1.981,0,0,1,1.31-1.272c.3-.1.18-.344.478-.328a3.822,3.822,0,0,1,2.212.975,3.113,3.113,0,0,1,.415,2.331h0a.336.336,0,0,1,.248.258,1.061,1.061,0,0,1-.129.644h0a.114.114,0,0,0-.007.016l-.539.886a4.381,4.381,0,0,1-.7.947l-.042.037c.04.056.089.127.138.2.073.11.152.227.232.335Zm6.2,2.882c-.23,0-.415-.248-.415-.553s.185-.553.415-.553h9.293c.23,0,.415.248.415.553s-.185.553-.415.553Zm0-6.678c-.23,0-.415-.248-.415-.553s.185-.553.415-.553h5.935c.23,0,.415.248.415.553s-.185.553-.415.553Z" transform="translate(-12.9 -17.627)" fill="#ff9f1c" fill-rule="evenodd"/>
      </g>
    </g>
  </g>
</svg>
