<svg xmlns="http://www.w3.org/2000/svg" width="66" height="66" viewBox="0 0 66 66">
  <g id="Magazine_Covers" data-name="Magazine Covers" transform="translate(0 2)">
    <rect id="Rectangle_28" data-name="Rectangle 28" width="66" height="66" rx="16" transform="translate(0 -2)" fill="#fff"/>
    <g id="Group_443" data-name="Group 443" transform="translate(1574.852 -2492.619)">
      <path id="Path_11225" data-name="Path 11225" d="M-1550.852,2532.92s.042.68.678.68a.752.752,0,0,0,.715-.68l.035-17.459a.393.393,0,0,1,.04-.2.345.345,0,0,1,.161-.119l12.592-3.342a.653.653,0,0,0,.455-.755c-.133-.565-.775-.4-.775-.4l-13.131,3.4a1.214,1.214,0,0,0-.495.246.893.893,0,0,0-.223.566Z" transform="translate(0)" fill="#2ec4b6"/>
      <path id="Path_11226" data-name="Path 11226" d="M-1550.852,2532.92s.042.68.678.68a.752.752,0,0,0,.715-.68V2515.1a.393.393,0,0,1,.04-.2.345.345,0,0,1,.161-.119l12.592-3.342a.653.653,0,0,0,.455-.755c-.133-.565-.775-.4-.775-.4l-13.131,3.4a1.214,1.214,0,0,0-.495.246.893.893,0,0,0-.223.566Z" transform="translate(2.01 2.01)" fill="#ff9f1c"/>
      <rect id="Rectangle_179" data-name="Rectangle 179" width="2.513" height="1.239" rx="0.62" transform="matrix(0.978, -0.208, 0.208, 0.978, -1544.947, 2519.281)" fill="#ff9f1c"/>
      <rect id="Rectangle_181" data-name="Rectangle 181" width="10.348" height="1.239" rx="0.62" transform="matrix(0.978, -0.208, 0.208, 0.978, -1544.947, 2521.016)" fill="#ff9f1c"/>
      <rect id="Rectangle_180" data-name="Rectangle 180" width="2.01" height="1.239" rx="0.62" transform="matrix(0.978, -0.208, 0.208, 0.978, -1536.923, 2517.236)" fill="#ff9f1c"/>
      <path id="Path_11229" data-name="Path 11229" d="M1.182.015c.518.1.673.6.656,1.156a.981.981,0,0,1-1.121.914A.989.989,0,0,1,.027.878,1.078,1.078,0,0,1,1.182.015Z" transform="matrix(0.951, 0.309, -0.309, 0.951, -1537.41, 2521.475)" fill="#ff9f1c"/>
      <path id="Path_11230" data-name="Path 11230" d="M-1540.094,2545.417l5.12-6.745,4.829,4a.766.766,0,0,0,.881-.116c.357-.388-.065-.889-.065-.889l-1.416-1.234,1-1.174,1.028.939v-1.719l-.691-.636a.767.767,0,0,0-.432-.227.674.674,0,0,0-.408.227l-1.5,1.853-2.772-2.308a.9.9,0,0,0-.581-.267.812.812,0,0,0-.557.267l-4.436,5.85Z" transform="translate(-5.352 -13.366)" fill="#ff9f1c"/>
      <path id="Union_23" data-name="Union 23" d="M.02,22.6A.659.659,0,0,1,0,22.37L.016,3.908A.893.893,0,0,1,.24,3.341,1.22,1.22,0,0,1,.734,3.1L13.328.023s.642-.168.775.4a.643.643,0,0,1,.011.263l-.008,18.43a.894.894,0,0,1-.223.566,1.222,1.222,0,0,1-.495.246L.8,23a.908.908,0,0,1-.208.023A.531.531,0,0,1,.02,22.6ZM1.594,4.2a.342.342,0,0,0-.161.119.391.391,0,0,0-.04.2V21.614l11.136-2.789a.344.344,0,0,0,.161-.119.389.389,0,0,0,.039-.2V1.407Z" transform="translate(-1546.831 2514.097)" fill="#2ec4b6"/>
    </g>
  </g>
</svg>
