<svg xmlns="http://www.w3.org/2000/svg" width="66" height="66" viewBox="0 0 66 66">
  <g id="Mobile_Video" data-name="Mobile Video" transform="translate(0 -31)">
    <rect id="Rectangle_28" data-name="Rectangle 28" width="66" height="66" rx="16" transform="translate(0 31)" fill="#fff"/>
    <g id="Group_514" data-name="Group 514" transform="translate(1661.45 -2658.88)">
      <path id="Subtraction_44" data-name="Subtraction 44" d="M13.793,28H2.207A2.226,2.226,0,0,1,0,25.76V2.24A2.226,2.226,0,0,1,2.207,0H13.793A2.226,2.226,0,0,1,16,2.24V25.76A2.226,2.226,0,0,1,13.793,28ZM2.5,1.021A1.633,1.633,0,0,0,.878,2.664V25.336A1.633,1.633,0,0,0,2.5,26.979H13.5a1.633,1.633,0,0,0,1.618-1.643V2.664A1.633,1.633,0,0,0,13.5,1.021Z" transform="translate(-1636.45 2708.88)" fill="#2ec4b6"/>
      <g id="Group_514-2" data-name="Group 514" transform="translate(-1633.224 2710.666)">
        <path id="Path_11411" data-name="Path 11411" d="M.416,0H4.3a.416.416,0,1,1,0,.833H.416A.416.416,0,0,1,.416,0Z" transform="translate(2.774 0)" fill="#ff9f1c"/>
        <path id="Subtraction_45" data-name="Subtraction 45" d="M5,10a5,5,0,1,1,5-5A5.006,5.006,0,0,1,5,10ZM5,.695A4.306,4.306,0,1,0,9.306,5,4.31,4.31,0,0,0,5,.695Z" transform="translate(-0.226 6.214)" fill="#2ec4b6"/>
        <path id="Subtraction_47" data-name="Subtraction 47" d="M1,2A1,1,0,1,1,2,1,1,1,0,0,1,1,2ZM1,.472A.528.528,0,1,0,1.528,1,.528.528,0,0,0,1,.472Z" transform="translate(3.774 22.214)" fill="#ff9f1c"/>
        <path id="Subtraction_46" data-name="Subtraction 46" d="M.39,5.316a.442.442,0,0,1-.181-.037C-.023,5.176,0,4.849,0,4.845V.465A.545.545,0,0,1,.3.031.551.551,0,0,1,.489,0,.747.747,0,0,1,.833.091L4.477,2.243a.48.48,0,0,1,.278.408.543.543,0,0,1-.278.434L.686,5.236A.64.64,0,0,1,.39,5.316ZM.9,1.213V4.134L3.446,2.679Z" transform="translate(2.897 8.556)" fill="#ff9f1c"/>
      </g>
    </g>
  </g>
</svg>
