<svg xmlns="http://www.w3.org/2000/svg" width="66" height="66" viewBox="0 0 66 66">
  <g id="Mug" transform="translate(0 -31)">
    <rect id="Rectangle_28" data-name="Rectangle 28" width="66" height="66" rx="16" transform="translate(0 31)" fill="#fff"/>
    <g id="Group_520" data-name="Group 520" transform="translate(1953.05 -2697.572)">
      <path id="mug-svgrepo-com" d="M73.6,11.509V23.018a.822.822,0,0,1-.822.822H69.492a3.018,3.018,0,0,1-3.015,3.014H55.516A3.018,3.018,0,0,1,52.5,23.84V8.494a.822.822,0,0,1,.822-.822H68.67a.822.822,0,0,1,.822.822v2.192H72.78a.822.822,0,0,1,.822.822ZM67.848,9.317h-13.7V23.84a1.372,1.372,0,0,0,1.371,1.371H66.477a1.372,1.372,0,0,0,1.371-1.371V9.317Zm4.11,3.014H69.492V22.2h2.466Z" transform="translate(-1983.551 2748.573)" fill="#2ec4b6"/>
      <path id="mug-svgrepo-com-2" data-name="mug-svgrepo-com" d="M57.566,3.469a.822.822,0,0,1,0-.911L59.026.366a.822.822,0,0,1,1.368.911L59.238,3.014,60.395,4.75a.822.822,0,1,1-1.368.911L57.566,3.47Zm5.492,2.192a.822.822,0,0,0,1.368-.911L63.27,3.014l1.157-1.737A.822.822,0,0,0,63.058.366L61.6,2.558a.822.822,0,0,0,0,.911l1.46,2.192Zm-7.269,11.6A2.469,2.469,0,0,1,58.256,14.8h5.481a2.466,2.466,0,0,1,0,4.933H58.256A2.469,2.469,0,0,1,55.79,17.264Zm1.644,0a.823.823,0,0,0,.822.822h5.481a.822.822,0,0,0,0-1.644H58.256A.823.823,0,0,0,57.434,17.264Z" transform="translate(-1983.652 2748.573)" fill="#ff9f1c"/>
    </g>
  </g>
</svg>
