<svg xmlns="http://www.w3.org/2000/svg" width="66" height="66" viewBox="0 0 66 66">
  <g id="Your_Stories" data-name="Your Stories" transform="translate(1 -31)">
    <rect id="Rectangle_28" data-name="Rectangle 28" width="66" height="66" rx="16" transform="translate(-1 31)" fill="#fff"/>
    <g id="Group_527" data-name="Group 527" transform="translate(1570 -2711)">
      <g id="video-status-icon" transform="translate(-1550 2760)">
        <path id="Path_11431" data-name="Path 11431" d="M12.318,11.548a5.5,5.5,0,1,1-5.5,5.5,5.5,5.5,0,0,1,5.5-5.5ZM1.339,0H23.3a1.334,1.334,0,0,1,.946.4l0,0a1.336,1.336,0,0,1,.391.946V28.155a1.334,1.334,0,0,1-.4.946l0,0a1.336,1.336,0,0,1-.946.391H1.339a1.338,1.338,0,0,1-.946-.4l0,0A1.331,1.331,0,0,1,0,28.15V1.344A1.334,1.334,0,0,1,.4.4l0,0A1.3,1.3,0,0,1,1.339,0ZM23.28,1.359H1.359V28.133H23.282V1.359ZM12.318,12.666a4.383,4.383,0,1,1-4.383,4.383,4.383,4.383,0,0,1,4.383-4.383Z" transform="translate(0 0)" fill="#2ec4b6" fill-rule="evenodd"/>
      </g>
      <g id="video-status-icon-2" data-name="video-status-icon" transform="translate(-1546.31 2763.534)">
        <path id="Path_11431-2" data-name="Path 11431" d="M16.7,19.173H31.364a1.293,1.293,0,0,1,1.287,1.287V35.571a1.291,1.291,0,0,1-1.287,1.284H16.7a1.29,1.29,0,0,1-1.284-1.284V20.459A1.292,1.292,0,0,1,16.7,19.173Zm-.036-2.122a1.248,1.248,0,1,1,0-2.5h2.967a1.248,1.248,0,1,1,0,2.5Zm6.949.12a1.371,1.371,0,0,1-.967-2.34l.024-.022a1.36,1.36,0,0,1,.946-.379H31.3a1.369,1.369,0,1,1,0,2.739h-7.69Zm-.454-.914a.642.642,0,0,0,.454.19H31.3a.639.639,0,0,0,.643-.643.632.632,0,0,0-.19-.454.64.64,0,0,0-.454-.187H23.609a.644.644,0,0,0-.442.173l-.014.017a.642.642,0,0,0-.187.456.634.634,0,0,0,.19.449Zm8.5,3.91H16.4v15.7H31.655l0-15.7Zm-5.674,8.19c.281-.18.278-.382,0-.542L23.091,26.15c-.228-.144-.466-.06-.461.24l.01,3.363c.019.324.2.413.475.262l2.871-1.659Z" transform="translate(-15.41 -14.43)" fill="#ff9f1c" fill-rule="evenodd"/>
      </g>
    </g>
  </g>
</svg>
