<svg xmlns="http://www.w3.org/2000/svg" width="66" height="66" viewBox="0 0 66 66">
  <g id="Animated_Social_Midea" data-name="Animated Social Midea" transform="translate(0 -31)">
    <rect id="Rectangle_28" data-name="Rectangle 28" width="66" height="66" rx="16" transform="translate(0 31)" fill="#fff"/>
    <g id="like" transform="translate(20 25.958)">
      <path id="Path_11434" data-name="Path 11434" d="M135.635,116.824a.764.764,0,0,0,1.081,0l4.814-4.814a3.683,3.683,0,1,0-5.209-5.208l-.145.145-.146-.146a3.683,3.683,0,0,0-5.209,5.209Zm-2.21-9.573a2.14,2.14,0,0,1,1.523.631l.687.687a.765.765,0,0,0,1.081,0l.686-.686a2.154,2.154,0,1,1,3.047,3.047l-4.273,4.273-4.274-4.273A2.157,2.157,0,0,1,133.425,107.251Z" transform="translate(-123.129 -75.62)" fill="#ff9f1c"/>
      <path id="Path_11435" data-name="Path 11435" d="M4.65,44.469H8.83l3.609,4.711a.765.765,0,0,0,1.214,0l3.609-4.711h4.179a4.656,4.656,0,0,0,4.65-4.65V30.692a4.656,4.656,0,0,0-4.65-4.65H4.65A4.656,4.656,0,0,0,0,30.692v9.126a4.656,4.656,0,0,0,4.65,4.65ZM1.529,30.692A3.125,3.125,0,0,1,4.65,27.571H21.441a3.125,3.125,0,0,1,3.121,3.121v9.126a3.125,3.125,0,0,1-3.121,3.121H16.885a.764.764,0,0,0-.607.3l-3.232,4.219L9.814,43.239a.764.764,0,0,0-.607-.3H4.65a3.125,3.125,0,0,1-3.121-3.121Z" transform="translate(0 0)" fill="#2ec4b6"/>
    </g>
  </g>
</svg>
