<svg xmlns="http://www.w3.org/2000/svg" width="66" height="66" viewBox="0 0 66 66">
  <g id="Calendars" transform="translate(0 2)">
    <rect id="Rectangle_28" data-name="Rectangle 28" width="66" height="66" rx="16" transform="translate(0 -2)" fill="#fff"/>
    <g id="Group_489" data-name="Group 489" transform="translate(1522 -2487)">
      <path id="Subtraction_26" data-name="Subtraction 26" d="M23.728,24H3.272A3.3,3.3,0,0,1,0,20.69V3.31A3.3,3.3,0,0,1,3.272,0H4.2V.827a2.773,2.773,0,0,0,2.621,2.9H7.2a2.772,2.772,0,0,0,2.62-2.9V0h7.364V.827a2.775,2.775,0,0,0,2.626,2.9h.375A2.775,2.775,0,0,0,22.81.827V0h.918A3.3,3.3,0,0,1,27,3.31V20.69A3.3,3.3,0,0,1,23.728,24ZM3.682,6.207A1.648,1.648,0,0,0,2.046,7.862V20.276a1.648,1.648,0,0,0,1.636,1.655H23.318a1.648,1.648,0,0,0,1.636-1.655V7.862a1.648,1.648,0,0,0-1.636-1.655H3.682Z" transform="translate(-1502 2508)" fill="#2ec4b6"/>
      <path id="Path_11287" data-name="Path 11287" d="M.407,0H2.035a.407.407,0,0,1,.407.407V2.035a.407.407,0,0,1-.407.407H.407A.407.407,0,0,1,0,2.035V.407A.407.407,0,0,1,.407,0Z" transform="translate(-1492.232 2517.209)" fill="#ff9f1c"/>
      <path id="Path_11290" data-name="Path 11290" d="M.407,0H2.035a.407.407,0,0,1,.407.407V2.035a.407.407,0,0,1-.407.407H.407A.407.407,0,0,1,0,2.035V.407A.407.407,0,0,1,.407,0Z" transform="translate(-1492.232 2521.279)" fill="#ff9f1c"/>
      <path id="Path_11295" data-name="Path 11295" d="M.407,0H2.035a.407.407,0,0,1,.407.407V2.035a.407.407,0,0,1-.407.407H.407A.407.407,0,0,1,0,2.035V.407A.407.407,0,0,1,.407,0Z" transform="translate(-1492.232 2525.756)" fill="#ff9f1c"/>
      <path id="Path_11289" data-name="Path 11289" d="M.407,0H2.035a.407.407,0,0,1,.407.407V2.035a.407.407,0,0,1-.407.407H.407A.407.407,0,0,1,0,2.035V.407A.407.407,0,0,1,.407,0Z" transform="translate(-1497.116 2521.279)" fill="#ff9f1c"/>
      <path id="Path_11296" data-name="Path 11296" d="M.407,0H2.035a.407.407,0,0,1,.407.407V2.035a.407.407,0,0,1-.407.407H.407A.407.407,0,0,1,0,2.035V.407A.407.407,0,0,1,.407,0Z" transform="translate(-1497.116 2525.756)" fill="#ff9f1c"/>
      <path id="Path_11288" data-name="Path 11288" d="M.407,0H2.035a.407.407,0,0,1,.407.407V2.035a.407.407,0,0,1-.407.407H.407A.407.407,0,0,1,0,2.035V.407A.407.407,0,0,1,.407,0Z" transform="translate(-1487.349 2517.209)" fill="#ff9f1c"/>
      <path id="Path_11291" data-name="Path 11291" d="M.407,0H2.035a.407.407,0,0,1,.407.407V2.035a.407.407,0,0,1-.407.407H.407A.407.407,0,0,1,0,2.035V.407A.407.407,0,0,1,.407,0Z" transform="translate(-1487.349 2521.279)" fill="#ff9f1c"/>
      <path id="Path_11294" data-name="Path 11294" d="M.407,0H2.035a.407.407,0,0,1,.407.407V2.035a.407.407,0,0,1-.407.407H.407A.407.407,0,0,1,0,2.035V.407A.407.407,0,0,1,.407,0Z" transform="translate(-1487.349 2525.756)" fill="#ff9f1c"/>
      <path id="Path_11286" data-name="Path 11286" d="M.407,0H2.035a.407.407,0,0,1,.407.407V2.035a.407.407,0,0,1-.407.407H.407A.407.407,0,0,1,0,2.035V.407A.407.407,0,0,1,.407,0Z" transform="translate(-1482.465 2517.209)" fill="#ff9f1c"/>
      <path id="Path_11292" data-name="Path 11292" d="M.407,0H2.035a.407.407,0,0,1,.407.407V2.035a.407.407,0,0,1-.407.407H.407A.407.407,0,0,1,0,2.035V.407A.407.407,0,0,1,.407,0Z" transform="translate(-1482.465 2521.279)" fill="#ff9f1c"/>
      <path id="Path_11293" data-name="Path 11293" d="M.407,0H2.035a.407.407,0,0,1,.407.407V2.035a.407.407,0,0,1-.407.407H.407A.407.407,0,0,1,0,2.035V.407A.407.407,0,0,1,.407,0Z" transform="translate(-1482.465 2525.756)" fill="#ff9f1c"/>
      <rect id="Rectangle_197" data-name="Rectangle 197" width="4" height="6" rx="2" transform="translate(-1497 2505)" fill="#ff9f1c"/>
      <rect id="Rectangle_198" data-name="Rectangle 198" width="4" height="6" rx="2" transform="translate(-1484 2505)" fill="#ff9f1c"/>
    </g>
  </g>
</svg>
