<svg xmlns="http://www.w3.org/2000/svg" width="66" height="66" viewBox="0 0 66 66">
  <g id="Comic_Strips" data-name="Comic Strips" transform="translate(0 2)">
    <rect id="Rectangle_28" data-name="Rectangle 28" width="66" height="66" rx="16" transform="translate(0 -2)" fill="#fff"/>
    <g id="Group_500" data-name="Group 500" transform="translate(1624.61 -1887.059)">
      <path id="Subtraction_34" data-name="Subtraction 34" d="M13.41,25.161a1.147,1.147,0,0,1-.49-.149c-.007,0-.721-.378-1.8-.84a27.142,27.142,0,0,0-4.077-1.4,27.779,27.779,0,0,0-4.258-.647C1.609,22.038.813,22.037.78,22.037a1.156,1.156,0,0,1-.221-.031.719.719,0,0,1-.368-.2A.847.847,0,0,1,.021,21.4,1.467,1.467,0,0,1,0,21.163L.019.745A.77.77,0,0,1,.042.579.871.871,0,0,1,.208.236.64.64,0,0,1,.509.03.568.568,0,0,1,.668,0H.691c.161,0,1.023,0,2.229.1C3.613.155,4.3.229,4.945.322c.8.114,1.56.257,2.255.423.726.174,1.5.4,2.313.683.647.223,1.315.479,1.984.759,1.138.476,1.9.865,1.909.869h0c.032-.016.808-.4,1.943-.869.679-.28,1.354-.535,2-.759.814-.279,1.593-.509,2.316-.683C20.364.579,21.115.436,21.9.322c.641-.093,1.31-.167,1.99-.222,1.18-.095,2.018-.1,2.174-.1h.04a.73.73,0,0,1,.523.212.893.893,0,0,1,.191.382A1.136,1.136,0,0,1,26.854.8l-.019,20.436a.938.938,0,0,1-.022.2.739.739,0,0,1-.189.369.855.855,0,0,1-.565.209h-.007c-.008,0-.815.007-1.976.1a28.588,28.588,0,0,0-4.257.663,28.5,28.5,0,0,0-4.1,1.391c-1.091.459-1.812.828-1.819.832A1.147,1.147,0,0,1,13.41,25.161ZM25.341,1.586h0c-.007,0-.73.014-1.779.114a25.912,25.912,0,0,0-3.856.649,27.415,27.415,0,0,0-3.76,1.312c-1,.428-1.676.774-1.683.777V23.13h0c.073-.034.742-.342,1.7-.717.595-.232,1.185-.445,1.754-.632.712-.234,1.393-.429,2.025-.579s1.319-.281,2.043-.388c.579-.086,1.183-.157,1.794-.212,1.038-.093,1.752-.106,1.76-.106V1.586ZM1.567,20.495c.076,0,.767.017,1.758.106.611.055,1.215.126,1.794.212.724.107,1.411.238,2.043.388s1.313.345,2.025.579c.57.187,1.16.4,1.754.632,1.006.393,1.7.714,1.7.717V4.439c-.006,0-.679-.348-1.683-.777A27.415,27.415,0,0,0,7.2,2.35,25.912,25.912,0,0,0,3.345,1.7C2.3,1.6,1.573,1.586,1.566,1.586V20.495Z" transform="translate(-1604.61 1905.059)" fill="#2ec4b6"/>
      <path id="Subtraction_35" data-name="Subtraction 35" d="M7.1,17.008a1.12,1.12,0,0,1-.27-.032c-.016-.005-1.575-.506-3.094-.828S.7,15.673.689,15.672a1.353,1.353,0,0,1-.2-.069.89.89,0,0,1-.325-.227.8.8,0,0,1-.148-.352A1.119,1.119,0,0,1,0,14.829L.021.73A.831.831,0,0,1,.043.552.744.744,0,0,1,.215.214.688.688,0,0,1,.54.027.772.772,0,0,1,.716,0s.4.035.98.12a20.991,20.991,0,0,1,2.18.431c.826.214,1.663.5,2.219.71.6.223,1.015.4,1.019.4a2.17,2.17,0,0,1,.231.1,1.31,1.31,0,0,1,.379.274.767.767,0,0,1,.163.356.843.843,0,0,1,.015.184V16.233a.893.893,0,0,1-.038.237.818.818,0,0,1-.094.21.671.671,0,0,1-.187.193A.837.837,0,0,1,7.1,17.008Zm-5.526-5.95V14.2h0c.046,0,1.13.12,2.28.361,1.176.246,2.468.631,2.481.635v-3.09c-.011,0-1.2-.39-2.367-.649S1.59,11.059,1.578,11.058Zm0-9.391V9.479h0c.046,0,1.13.12,2.28.361,1.176.246,2.468.631,2.481.635V3.031c-.011,0-1.116-.46-2.3-.8S1.591,1.668,1.578,1.666Z" transform="translate(-1601.466 1908.445)" fill="#ff9f1c"/>
      <path id="Subtraction_36" data-name="Subtraction 36" d="M.791,7.564a.878.878,0,0,1-.462-.108.694.694,0,0,1-.28-.36A.862.862,0,0,1,0,6.877V2.512a.889.889,0,0,1,.159-.46.806.806,0,0,1,.27-.222.913.913,0,0,1,.154-.065s.384-.16.958-.369C2.07,1.2,2.879.924,3.721.7s1.717-.4,2.3-.513C6.656.065,7.1,0,7.1,0a1.193,1.193,0,0,1,.211.027A.842.842,0,0,1,7.689.2a.678.678,0,0,1,.194.321A.727.727,0,0,1,7.911.7V5.373a1.092,1.092,0,0,1-.013.2.776.776,0,0,1-.142.358.9.9,0,0,1-.33.234,1.4,1.4,0,0,1-.2.072c-.015,0-1.486.143-2.995.464s-3.092.827-3.108.832A1.6,1.6,0,0,1,.791,7.564ZM6.355,1.7c-.014,0-1.385.247-2.565.583a20.824,20.824,0,0,0-2.208.774V5.764h0c.124-.037,1.246-.372,2.372-.608,1.18-.247,2.387-.39,2.4-.391Z" transform="translate(-1588.822 1908.437)" fill="#ff9f1c"/>
      <path id="Subtraction_37" data-name="Subtraction 37" d="M6.515,8.115a.839.839,0,0,1-.448-.132,1.826,1.826,0,0,1-.2-.179,2.089,2.089,0,0,0-1.3-.723H4.563a1.846,1.846,0,0,0-1.221.7,1.7,1.7,0,0,1-.184.176.822.822,0,0,1-.478.149.885.885,0,0,1-.353-.074.683.683,0,0,1-.439-.689,2.252,2.252,0,0,1,.071-.39,2.142,2.142,0,0,0,.026-1.334C1.757,5.161.99,4.939.662,4.845.6,4.826.551,4.813.527,4.8A.93.93,0,0,1,.2,4.6.731.731,0,0,1,0,4.057a.735.735,0,0,1,.222-.546A.938.938,0,0,1,.588,3.3c.03-.01.073-.02.127-.034a2.007,2.007,0,0,0,1.2-.664,1.306,1.306,0,0,0,.147-.783A4.586,4.586,0,0,0,1.948,1.1c-.015-.067-.027-.121-.031-.153a1.182,1.182,0,0,1,0-.364A.624.624,0,0,1,2.13.2.835.835,0,0,1,2.665.006.76.76,0,0,1,3.02.091a1.923,1.923,0,0,1,.3.247,2.22,2.22,0,0,0,1.26.707h.029A2.029,2.029,0,0,0,5.979.228L6.017.187A.716.716,0,0,1,6.493,0a.787.787,0,0,1,.361.093A.733.733,0,0,1,7.27.924a1.838,1.838,0,0,1-.051.209,1.879,1.879,0,0,0,.027,1.445,1.979,1.979,0,0,0,1.407.757.656.656,0,0,1,.068.015l.012,0a.667.667,0,0,1,.445.671.819.819,0,0,1-.166.548.755.755,0,0,1-.293.2,1.535,1.535,0,0,1-.181.051,2.081,2.081,0,0,0-1.263.693,1.459,1.459,0,0,0-.158.937,4.065,4.065,0,0,0,.145.723l.012.044a.68.68,0,0,1,0,.315.717.717,0,0,1-.282.413A.781.781,0,0,1,6.515,8.115ZM4.568,5.508a3.786,3.786,0,0,1,.983.159h0a2.633,2.633,0,0,1,.057-.29,2.42,2.42,0,0,1,.231-.594,2.659,2.659,0,0,1,.406-.517,3.083,3.083,0,0,1,.232-.214h0c-.025-.021-.115-.1-.228-.214a2.883,2.883,0,0,1-.409-.516A2.249,2.249,0,0,1,5.6,2.73a2.324,2.324,0,0,1-.054-.289h0c-.032.012-.15.053-.313.095a2.84,2.84,0,0,1-.669.1,2.587,2.587,0,0,1-.648-.1,2.821,2.821,0,0,1-.293-.1s0,0,0,0a2.462,2.462,0,0,1-.052.288,2.281,2.281,0,0,1-.226.591,2.6,2.6,0,0,1-.411.516,3.1,3.1,0,0,1-.237.214h0a2.651,2.651,0,0,1,.208.2,2.626,2.626,0,0,1,.383.5,3.562,3.562,0,0,1,.334.921h0A3.336,3.336,0,0,1,4.568,5.508Z" transform="translate(-1589.448 1916.734)" fill="#2ec4b6"/>
    </g>
  </g>
</svg>
