<svg xmlns="http://www.w3.org/2000/svg" width="66" height="66" viewBox="0 0 66 66">
  <g id="Desktop_Wallpapers" data-name="Desktop Wallpapers" transform="translate(0 2)">
    <rect id="Rectangle_28" data-name="Rectangle 28" width="66" height="66" rx="16" transform="translate(0 -2)" fill="#fff"/>
    <g id="Group_438" data-name="Group 438" transform="translate(-1 -1)">
      <g id="Group_32" data-name="Group 32" transform="translate(1967.057 -2485.945)">
        <path id="Subtraction_22" data-name="Subtraction 22" d="M.829,18.725a.331.331,0,0,1-.08-.01c-.164-.041-.207-.328-.207-.331a19.635,19.635,0,0,1-.449-3.4,49.272,49.272,0,0,1,0-5.925,13.94,13.94,0,0,1,1-4.966A6.215,6.215,0,0,1,3.393,1.507,8.774,8.774,0,0,1,6.684.392,30.262,30.262,0,0,1,11.52,0c.15,0,.3,0,.452,0,5.284.081,8.639.338,10.669,3.23a9.966,9.966,0,0,1,1.32,4.38,33.35,33.35,0,0,1,.212,4.627,7.408,7.408,0,0,0-2.158-.736,10.612,10.612,0,0,0-2.005-.215,7.321,7.321,0,0,0-1.787.215,8.721,8.721,0,0,0-4.476,3.113A5.05,5.05,0,0,1,11.879,16.2a2.665,2.665,0,0,1-.821.115A9.793,9.793,0,0,1,9.05,16l-.1-.022a10.776,10.776,0,0,0-2.3-.33,4.4,4.4,0,0,0-.979.1,10.2,10.2,0,0,0-4.377,2.716c-.044.041-.072.068-.084.078A.635.635,0,0,1,.829,18.725ZM9.18,5.332a3.846,3.846,0,1,0,3.846,3.847A3.851,3.851,0,0,0,9.18,5.332Z" transform="translate(-1946.057 2504.945)" fill="#2ec4b6"/>
        <path id="Path_7828" data-name="Path 7828" d="M-1941.371,2548.616a.3.3,0,0,0-.113.229.3.3,0,0,0,.113.217,5.893,5.893,0,0,0,3.192,2.207,26.733,26.733,0,0,0,7.75.762c5.256-.111,8.205-.646,9.857-3.173s1.62-6.552,1.62-6.552a6.588,6.588,0,0,0-5.458-1c-3.119.843-3.81,3.823-6.313,4.666s-4.16-.833-6.187-.44S-1941.371,2548.616-1941.371,2548.616Z" transform="translate(-2.897 -22.901)" fill="#ff9f1c"/>
        <circle id="Ellipse_51" data-name="Ellipse 51" cx="2.198" cy="2.198" r="2.198" transform="translate(-1939.076 2511.926)" fill="#ff9f1c"/>
      </g>
      <path id="Subtraction_23" data-name="Subtraction 23" d="M1959.7-2494.837a29.56,29.56,0,0,1-7.9-.888,5.543,5.543,0,0,1-3.6-3.891,6.635,6.635,0,0,0,3.685,2.854,26.606,26.606,0,0,0,7.727.9c.382,0,.766,0,1.142-.012,5.813-.123,9.337-.762,11.311-3.781a14.737,14.737,0,0,0,1.865-6.379l0,.008c0,.483-.085,4.8-1.867,7.523-1.912,2.925-5.321,3.525-11.345,3.652C1960.374-2494.841,1960.032-2494.837,1959.7-2494.837Z" transform="translate(-1927.02 2540.766)" fill="#2ec4b6"/>
    </g>
  </g>
</svg>
