<svg xmlns="http://www.w3.org/2000/svg" width="66" height="66" viewBox="0 0 66 66">
  <g id="Graphic_Organizers" data-name="Graphic Organizers" transform="translate(0 2)">
    <rect id="Rectangle_28" data-name="Rectangle 28" width="66" height="66" rx="16" transform="translate(0 -2)" fill="#fff"/>
    <g id="Group_506" data-name="Group 506" transform="translate(1352.326 -2780.799)">
      <path id="Path_11376" data-name="Path 11376" d="M-1321.128,2680.7v-1.219a2.959,2.959,0,0,0-1.393.788,1.988,1.988,0,0,0-.564,1.281v12.891a2.678,2.678,0,0,0,.614,1.616,2.365,2.365,0,0,0,1.491.748h9.382v2.105h-3.731l-.849,1.145h13.667l-.96-1.145h-3.731V2696.8h9.161a3.009,3.009,0,0,0,1.817-.886,3.226,3.226,0,0,0,.657-1.958V2682.21a3.2,3.2,0,0,0-.5-1.725,3.584,3.584,0,0,0-1.566-1.009v1.319a.93.93,0,0,1,.609.427,2.58,2.58,0,0,1,.167.988v11.931a1.706,1.706,0,0,1-.36,1.036,1.53,1.53,0,0,1-.969.478h-22.237a1.686,1.686,0,0,1-1.19-.508,1.768,1.768,0,0,1-.436-1.191V2682.21a1.814,1.814,0,0,1,.207-.961A1.575,1.575,0,0,1-1321.128,2680.7Z" transform="translate(-10 126.171)" fill="#2ec4b6"/>
      <path id="Path_11377" data-name="Path 11377" d="M-1299.109,2670.595v4.754h4.85v-3.841h-2.161v-.913Z" transform="translate(-28.632 133.072)" fill="#2ec4b6"/>
      <path id="Path_11378" data-name="Path 11378" d="M-1284.246,2658.963v2.784h2.785v-2.784Z" transform="translate(-40.181 142.111)" fill="#ff9f1c"/>
      <path id="Path_11379" data-name="Path 11379" d="M-1270.676,2650.5h1.873v-1.872h-1.873Z" transform="translate(-50.726 150.146)" fill="#ff9f1c"/>
      <path id="Path_11380" data-name="Path 11380" d="M-1262.5,2658.963v1.683h1.683v-1.683Z" transform="translate(-57.08 142.111)" fill="#ff9f1c"/>
      <path id="Path_11381" data-name="Path 11381" d="M-1260.336,2642.376v1.2h1.218v-1.2Z" transform="translate(-58.761 155)" fill="#ff9f1c"/>
      <path id="Path_11382" data-name="Path 11382" d="M-1285.539,2690.2v2.161h3.553V2688.9h-1.2v1.3Z" transform="translate(-39.177 118.845)" fill="#2ec4b6"/>
      <path id="Union_28" data-name="Union 28" d="M0,16.711V0H2.113V1.008H1.2v14.6h9.6V2.833h.768V15.606h9.412V1.2a35.232,35.232,0,0,0-6.5-.192c-2.4.3-3.1,1.393-3.1,1.393A3.947,3.947,0,0,1,13.169.677,7.326,7.326,0,0,1,16.087,0h6.146V16.711ZM9.765,1.546a5.627,5.627,0,0,0-1.371-.323l.4-.3a2.272,2.272,0,0,1,1.164.3,2.938,2.938,0,0,1,.841,1A3.653,3.653,0,0,0,9.765,1.546Z" transform="translate(-1330.526 2803.571)" fill="#ff9f1c"/>
      <path id="Path_11385" data-name="Path 11385" d="M-1257.175,2695.444h1.639l-.284-7.847h1.333v-1.355h-2.688a1.227,1.227,0,0,1-.459.634,1.835,1.835,0,0,1-.874.175v.546h1.617Z" transform="translate(-60.182 120.913)" fill="#2ec4b6"/>
      <path id="Path_11386" data-name="Path 11386" d="M-1238.481,2687.912h.153l-.153-1.377h-.634l-.155,1.377h.155v3.519h-.372v.546h.24v.568h-.24v2.863a.707.707,0,0,0,.731.547.654.654,0,0,0,.706-.547v-2.863h-.278v-.568h.229v-.546h-.382Z" transform="translate(-74.963 120.685)" fill="#ff9f1c"/>
      <path id="Subtraction_40" data-name="Subtraction 40" d="M1.348,9.408A.718.718,0,0,1,.676,9a1.136,1.136,0,0,1-.118-.4l.2-6.288a1.224,1.224,0,0,1-.45-.28A1.124,1.124,0,0,1,.037.934,1.065,1.065,0,0,1,.673.154,1.987,1.987,0,0,1,1.469,0a1.846,1.846,0,0,1,.2.009A1.178,1.178,0,0,0,1.2.463a.665.665,0,0,0,.151.773.55.55,0,0,0,.351.131A1.129,1.129,0,0,0,2.424.934v0a1.608,1.608,0,0,1,0,1.007.817.817,0,0,1-.605.37L2.1,8.6A1.106,1.106,0,0,1,2,9,.682.682,0,0,1,1.348,9.408ZM1.34,8.048a.334.334,0,1,0,.334.334A.335.335,0,0,0,1.34,8.048Z" transform="translate(-1312.56 2807.19)" fill="#2ec4b6"/>
    </g>
  </g>
</svg>
