<svg xmlns="http://www.w3.org/2000/svg" width="66" height="66" viewBox="0 0 66 66">
  <g id="Mind_Maps" data-name="Mind Maps" transform="translate(0 2)">
    <rect id="Rectangle_28" data-name="Rectangle 28" width="66" height="66" rx="16" transform="translate(0 -2)" fill="#fff"/>
    <g id="Group_442" data-name="Group 442" transform="translate(1736.975 -2486.025)">
      <path id="Union_22" data-name="Union 22" d="M0,19.616a2.362,2.362,0,0,1,2.34-2.383,2.3,2.3,0,0,1,.855.164l2.437-2.662,1.053,1L4.31,18.329a2.4,2.4,0,0,1,.37,1.287A2.362,2.362,0,0,1,2.34,22,2.362,2.362,0,0,1,0,19.616Zm14.427-5.73-2.094-.338L12.56,12.1l2.208.356a1.786,1.786,0,0,1,1.432-.723,1.834,1.834,0,1,1-1.773,2.153ZM7.879,4.692A2.376,2.376,0,0,1,6.12,2.383a2.34,2.34,0,1,1,4.68,0A2.383,2.383,0,0,1,9.317,4.6L9.435,8.04,8,8.091Z" transform="translate(-1709.975 2505.025)" fill="#ff9f1c"/>
      <path id="Union_21" data-name="Union 21" d="M17.455,15.353a2.6,2.6,0,0,1,.812-1.885L16.5,10.355a4.817,4.817,0,0,1-2.314.587A4.66,4.66,0,0,1,9.455,6.353q0-.227.022-.449L5.209,4.552a2.937,2.937,0,0,1-2.3,1.094A2.867,2.867,0,0,1,0,2.823,2.867,2.867,0,0,1,2.909,0a2.868,2.868,0,0,1,2.91,2.823,2.764,2.764,0,0,1-.032.419L9.844,4.527a4.8,4.8,0,0,1,7.962-1.121l2.569-1.445a1.733,1.733,0,0,1-.011-.2,1.819,1.819,0,0,1,3.637,0A1.792,1.792,0,0,1,22.182,3.53a1.847,1.847,0,0,1-1.089-.351L18.555,4.608a4.486,4.486,0,0,1-.894,4.852l1.887,3.318a2.814,2.814,0,0,1,.634-.072,2.648,2.648,0,1,1-2.727,2.647Z" transform="translate(-1715.975 2511.025)" fill="#2ec4b6"/>
    </g>
  </g>
</svg>
