<svg xmlns="http://www.w3.org/2000/svg" width="66" height="66" viewBox="0 0 66 66">
  <g id="Artistic_CD_Covers" data-name="Artistic CD Covers" transform="translate(0 2)">
    <rect id="Rectangle_28" data-name="Rectangle 28" width="66" height="66" rx="16" transform="translate(0 -2)" fill="#fff"/>
    <g id="Group_505" data-name="Group 505" transform="translate(-4453.745 -4376.063)">
      <path id="Path_11373" data-name="Path 11373" d="M4614.3,4457.16h1.642l.168.309c2.438,4.469,1.643,10.251.849,16.033a62.484,62.484,0,0,0-.774,8.279v.591h-18.765v-.591q0-.394.011-.792h16.428v-.591a62.48,62.48,0,0,1,.775-8.278c.732-5.329,1.464-10.659-.334-14.959Z" transform="translate(-119.986 -61.715)" fill="none" stroke="#ff9f1c" stroke-linecap="round" stroke-linejoin="round" stroke-width="1"/>
      <path id="Path_11374" data-name="Path 11374" d="M4475.7,4394.063h17.931l.168.309c2.438,4.469,1.643,10.251.849,16.033a62.492,62.492,0,0,0-.774,8.279v.591h-18.765v-.591a60.728,60.728,0,0,1,.789-8.308c.769-5.468,1.538-10.936-.724-15.458l-.427-.854Z" fill="none" stroke="#2ec4b6" stroke-linecap="round" stroke-linejoin="round" stroke-width="1"/>
      <path id="Path_11375" data-name="Path 11375" d="M4656.955,4589.37a.554.554,0,0,1,.533-.306.563.563,0,0,1,.291.108,13.205,13.205,0,0,1,2.2,2.154,16.958,16.958,0,0,0,1.362,1.459,4.031,4.031,0,0,0,1.461.911,2.5,2.5,0,0,0,1.4.024.552.552,0,1,1,.275,1.068,3.577,3.577,0,0,1-2.267-.115,8.758,8.758,0,0,1-3.062-2.629c-.387-.448-.783-.912-1.215-1.326l-.841,12.055a1.67,1.67,0,0,1,.038.269,1.989,1.989,0,0,1-.789,1.645,3.572,3.572,0,0,1-4,.239,1.878,1.878,0,0,1-.19-3.184,3.582,3.582,0,0,1,3.924-.285c.02-.3.042-.635.066-.983l0-.072.025-.368v-.008l.011-.166.011-.155.006-.1.006-.086c.012-.176.024-.354.037-.535l.013-.188,0-.072.017-.252,0-.022.024-.347q.022-.33.046-.664l.011-.161.006-.079.014-.208.021-.306,0-.037.014-.2.005-.084.013-.187.01-.139.008-.116.015-.2.014-.192.012-.169.008-.116.012-.17.008-.117.012-.168.009-.125.019-.261.005-.078.014-.194.008-.105.012-.176.006-.095.013-.184.007-.1.018-.248,0-.066.014-.2.006-.081.012-.177.006-.08.015-.2,0-.055c.006-.078.011-.155.017-.23l.006-.081.012-.156.006-.083.011-.137.007-.094.012-.158,0-.048c.005-.07.01-.141.016-.208l0-.04c0-.052.008-.1.012-.155l.006-.069.009-.114.006-.073c0-.046.007-.09.01-.134l0-.038c0-.056.008-.109.013-.162l0-.048c0-.036.006-.071.009-.105l0-.054c0-.032,0-.065.008-.1l0-.041c0-.039.006-.077.01-.113v-.017c0-.041.007-.078.011-.115l0-.027c0-.025,0-.051.007-.074l0-.033.006-.058c0-.01,0-.02,0-.029s0-.044.007-.064v-.007c0-.021,0-.04.007-.057s0-.009,0-.014,0-.021,0-.029,0-.008,0-.011l0-.019a.026.026,0,0,0,0-.006s0-.008,0-.008Z" transform="translate(-172.738 -190.728)" fill="none" stroke="#ff9f1c" stroke-linecap="round" stroke-linejoin="round" stroke-width="1"/>
    </g>
  </g>
</svg>
