<svg xmlns="http://www.w3.org/2000/svg" width="66" height="66" viewBox="0 0 66 66">
  <g id="Book_Covers" data-name="Book Covers" transform="translate(0 2)">
    <rect id="Rectangle_28" data-name="Rectangle 28" width="66" height="66" rx="16" transform="translate(0 -2)" fill="#fff"/>
    <g id="book-cover-svgrepo-com" transform="translate(20 -9.923)">
      <g id="Group_441" data-name="Group 441" transform="translate(0 28.923)">
        <path id="Path_11218" data-name="Path 11218" d="M343.242,70.863c.39-.184.786-.347,1.188-.5s.841-.287,1.268-.412.867-.235,1.307-.325.878-.17,1.32-.242.873-.117,1.311-.17c.43-.034.86-.08,1.291-.1l1.027-.043a.617.617,0,0,0,.209-1.194,1.5,1.5,0,0,0-.754.038c-.382.063-.763.125-1.142.2h-.007l-.025.005c-.422.086-.841.175-1.259.278-.436.107-.866.227-1.3.352a20.68,20.68,0,0,0-2.508.926,17.537,17.537,0,0,0-1.608.826c-.249.141-.486.3-.722.463a5.308,5.308,0,0,0-.513.392l.039-.015A6.755,6.755,0,0,1,343.242,70.863Z" transform="translate(-327.836 -66.192)" fill="#ff9f1c"/>
        <path id="Path_11219" data-name="Path 11219" d="M320.717,33.4c.35-.263.707-.51,1.076-.744a17.628,17.628,0,0,1,2-1.069,18.854,18.854,0,0,1,2.526-.921,22.97,22.97,0,0,1,2.255-.515.617.617,0,0,0-.083-1.226.879.879,0,0,0-.3.061l-.5.164c-.408.134-.808.283-1.209.437a18.441,18.441,0,0,0-2.445,1.165,16.609,16.609,0,0,0-1.874,1.213A14.817,14.817,0,0,0,320.8,33.1c-.2.2-.408.395-.6.605a4.457,4.457,0,0,0-.44.538c.024-.029.049-.057.075-.083A6.678,6.678,0,0,1,320.717,33.4Z" transform="translate(-306.229 -28.924)" fill="#2ec4b6"/>
        <path id="Path_11220" data-name="Path 11220" d="M37.371,70.791c-.37-.233-.749-.445-1.135-.651s-.8-.389-1.208-.562-.821-.339-1.241-.479-.858-.281-1.292-.407-.853-.227-1.282-.332c-.8-.2-1.612-.322-2.422-.454a.747.747,0,0,0-.419.024.617.617,0,0,0,.208,1.188l.913.038c.428.018.854.057,1.281.091s.886.09,1.321.161.875.145,1.31.234a18.443,18.443,0,0,1,2.589.72c.4.147.8.314,1.189.492a8.024,8.024,0,0,1,.993.539l.04.015A6.65,6.65,0,0,0,37.371,70.791Z" transform="translate(-26.805 -66.238)" fill="#ff9f1c"/>
        <path id="Path_11221" data-name="Path 11221" d="M72.43,30.146c.712.14,1.426.274,2.124.474a21.673,21.673,0,0,1,2.526.9c.413.176.813.383,1.211.591.272.142.542.293.8.457a12.208,12.208,0,0,1,2.02,1.518,2.116,2.116,0,0,1,.148.157,5.824,5.824,0,0,0-.72-.833,11.544,11.544,0,0,0-.968-.886,16.963,16.963,0,0,0-1.776-1.29,19.258,19.258,0,0,0-2.414-1.292c-.411-.183-.825-.35-1.245-.511-.379-.145-.764-.269-1.149-.4a1.479,1.479,0,0,0-.437-.112.617.617,0,0,0-.121,1.223Z" transform="translate(-68.89 -28.923)" fill="#2ec4b6"/>
        <g id="Group_439" data-name="Group 439" transform="translate(15.806 3.888)">
          <path id="Path_11222" data-name="Path 11222" d="M382.909,120.788c-.257-.009-.523-.014-.79-.014a37.862,37.862,0,0,0-8.716,1.193v17.816a41.827,41.827,0,0,1,9.576-2.834.616.616,0,0,0,.523-.609V121.4A.616.616,0,0,0,382.909,120.788Z" transform="translate(-373.404 -120.774)" fill="#2ec4b6"/>
        </g>
        <path id="Path_11223" data-name="Path 11223" d="M264.007,148.817a4.013,4.013,0,0,1-3.635,0l-.119-.056h0c0,3.252,0,8.468,0,11.9v5.918c.025.093.466.56,1.936.56s1.911-.468,1.936-.56V148.761Z" transform="translate(-249.237 -143.688)" fill="#ff9f1c"/>
        <g id="Group_440" data-name="Group 440" transform="translate(0 3.888)">
          <path id="Path_11224" data-name="Path 11224" d="M.594,120.787A.616.616,0,0,0,0,121.4v14.937a.616.616,0,0,0,.523.609,41.827,41.827,0,0,1,9.576,2.834v-5.551c0-3.957,0-8.516,0-12.266a37.873,37.873,0,0,0-8.716-1.193C1.117,120.773.851,120.778.594,120.787Z" transform="translate(0 -120.773)" fill="#2ec4b6"/>
        </g>
      </g>
    </g>
  </g>
</svg>
