<svg xmlns="http://www.w3.org/2000/svg" width="66" height="66" viewBox="0 0 66 66">
  <g id="Instagram_Posts" data-name="Instagram Posts" transform="translate(1 -31)">
    <rect id="Rectangle_28" data-name="Rectangle 28" width="66" height="66" rx="16" transform="translate(-1 31)" fill="#fff"/>
    <g id="instagram-logo-svgrepo-com" transform="translate(19 51)">
      <path id="Path_11428" data-name="Path 11428" d="M18.362,0H7A7.007,7.007,0,0,0,0,7V18.362a7.006,7.006,0,0,0,7,7H18.362a7.007,7.007,0,0,0,7-7V7A7.007,7.007,0,0,0,18.362,0Zm4.749,18.362a4.754,4.754,0,0,1-4.749,4.749H7A4.754,4.754,0,0,1,2.25,18.362V7A4.754,4.754,0,0,1,7,2.25H18.362A4.754,4.754,0,0,1,23.111,7V18.362Z" fill="#2ec4b6"/>
      <path id="Path_11429" data-name="Path 11429" d="M47.5,40.97A6.535,6.535,0,1,0,54.038,47.5,6.542,6.542,0,0,0,47.5,40.97Zm0,10.819A4.285,4.285,0,1,1,51.788,47.5,4.289,4.289,0,0,1,47.5,51.789Z" transform="translate(-34.822 -34.824)" fill="#ff9f1c"/>
      <path id="Path_11430" data-name="Path 11430" d="M120.571,28.251a1.649,1.649,0,1,0,1.167.483A1.657,1.657,0,0,0,120.571,28.251Z" transform="translate(-101.082 -24.013)" fill="#ff9f1c"/>
    </g>
  </g>
</svg>
