<svg xmlns="http://www.w3.org/2000/svg" width="66" height="66" viewBox="0 0 66 66">
  <g id="Logo" transform="translate(0 -31)">
    <rect id="Rectangle_28" data-name="Rectangle 28" width="66" height="66" rx="16" transform="translate(0 31)" fill="#fff"/>
    <g id="Group_515" data-name="Group 515" transform="translate(1560 -2694)">
      <path id="home-location" d="M21.8,5.577,14.8.855a4.98,4.98,0,0,0-5.6,0l-7,4.723A5,5,0,0,0,0,9.721v9.273a5.005,5.005,0,0,0,5,5H19a5.005,5.005,0,0,0,5-5V9.721a5,5,0,0,0-2.2-4.144ZM22,18.995a3,3,0,0,1-3,3H5a3,3,0,0,1-3-3V9.721A3,3,0,0,1,3.322,7.235l7-4.723a2.987,2.987,0,0,1,3.356,0l7,4.723A3,3,0,0,1,22,9.721Z" transform="translate(-1539 2746.007)" fill="#2ec4b6"/>
      <text id="LOGO-2" data-name="LOGO" transform="translate(-1535 2762)" fill="#ff9f1c" font-size="5" font-family="Montserrat-Black, Montserrat" font-weight="800" letter-spacing="0.05em"><tspan x="0" y="0">LOGO</tspan></text>
    </g>
  </g>
</svg>
