<svg xmlns="http://www.w3.org/2000/svg" width="66" height="66" viewBox="0 0 66 66">
  <g id="YouTube_Thumbnail" data-name="YouTube Thumbnail" transform="translate(1 -31)">
    <rect id="Rectangle_28" data-name="Rectangle 28" width="66" height="66" rx="16" transform="translate(-1 31)" fill="#fff"/>
    <g id="youtube-rounded-square-logo-svgrepo-com" transform="translate(20 52)">
      <g id="Group_523" data-name="Group 523" transform="translate(0)">
        <path id="Path_11420" data-name="Path 11420" d="M286.609,285.3a1.4,1.4,0,0,0-1.074.632v-2.544h-1.058v7.788h1.058v-.569a1.43,1.43,0,0,0,1.074.648.809.809,0,0,0,.837-.663,4.126,4.126,0,0,0,.111-1.153v-2.306a4.206,4.206,0,0,0-.111-1.169A.809.809,0,0,0,286.609,285.3Zm-.095,4.217q0,.775-.458.774a.74.74,0,0,1-.521-.252V286.5a.742.742,0,0,1,.521-.252q.458,0,.458.79Z" transform="translate(-271.997 -270.955)" fill="#ff9f1c"/>
        <path id="Path_11421" data-name="Path 11421" d="M374.992,326.967a1.5,1.5,0,0,0-1.264.6,2.3,2.3,0,0,0-.316,1.358v2.038a2.22,2.22,0,0,0,.332,1.358,1.517,1.517,0,0,0,1.28.6,1.425,1.425,0,0,0,1.264-.632,1.483,1.483,0,0,0,.237-.632,5.3,5.3,0,0,0,.031-.68v-.142h-1.074v.339q0,.166-.008.261c-.005.063-.008.1-.008.11a.457.457,0,0,1-.474.41q-.537,0-.537-.805v-1.027h2.1v-1.2a2.266,2.266,0,0,0-.332-1.358A1.42,1.42,0,0,0,374.992,326.967Zm.506,2.29h-1.043v-.538q0-.805.521-.805t.521.805Z" transform="translate(-357.031 -312.623)" fill="#ff9f1c"/>
        <path id="Path_11422" data-name="Path 11422" d="M197.132,333.188q-.348.49-.663.489-.221,0-.237-.237a2.345,2.345,0,0,1-.016-.41v-4.265h-1.043v4.581a2.689,2.689,0,0,0,.095.853.621.621,0,0,0,.663.442,1.681,1.681,0,0,0,1.2-.711v.632h1.058v-5.8h-1.058v4.423Z" transform="translate(-186.611 -314.342)" fill="#ff9f1c"/>
        <path id="Path_11423" data-name="Path 11423" d="M260.135,103.83q.505,0,.506-.806v-2.465q0-.821-.506-.821t-.506.821v2.465Q259.629,103.829,260.135,103.83Z" transform="translate(-248.239 -95.363)" fill="#ff9f1c"/>
        <path id="Path_11424" data-name="Path 11424" d="M108.03,284.493h1.232v6.682h1.169v-6.682h1.264v-1.106H108.03Z" transform="translate(-103.291 -270.955)" fill="#ff9f1c"/>
        <path id="Path_11425" data-name="Path 11425" d="M19.715,0H4.55A4.385,4.385,0,0,0,1.335,1.335,4.383,4.383,0,0,0,0,4.55V19.715a4.379,4.379,0,0,0,1.335,3.214A4.383,4.383,0,0,0,4.55,24.264H19.715a4.559,4.559,0,0,0,4.549-4.55V4.55a4.384,4.384,0,0,0-1.335-3.215A4.384,4.384,0,0,0,19.715,0ZM14.328,3.507h1.058V7.8a2.394,2.394,0,0,0,.016.411c.01.169.095.253.253.253q.316,0,.663-.49V3.507h1.058V9.352H16.318V8.72a1.766,1.766,0,0,1-1.216.711A.664.664,0,0,1,14.423,9a2.95,2.95,0,0,1-.095-.869V3.507Zm-4,1.9a2.34,2.34,0,0,1,.332-1.374,1.419,1.419,0,0,1,1.232-.6,1.471,1.471,0,0,1,1.232.6A2.341,2.341,0,0,1,13.459,5.4V7.456a2.253,2.253,0,0,1-.332,1.374,1.469,1.469,0,0,1-1.232.6,1.418,1.418,0,0,1-1.232-.6,2.337,2.337,0,0,1-.332-1.374V5.4ZM7.488,1.5l.837,3.08L9.131,1.5h1.185L8.894,6.177V9.352H7.725V6.177A21.7,21.7,0,0,0,7,3.681q-.111-.363-.364-1.09L6.256,1.5H7.488ZM20.5,20.567a2.221,2.221,0,0,1-.672,1.153,2.07,2.07,0,0,1-1.193.553q-2.164.237-6.508.237t-6.508-.237a2.07,2.07,0,0,1-1.193-.553,2.215,2.215,0,0,1-.671-1.153,19.344,19.344,0,0,1-.316-4.107,19.76,19.76,0,0,1,.316-4.107,2.185,2.185,0,0,1,.671-1.161,2.111,2.111,0,0,1,1.208-.546,64.773,64.773,0,0,1,6.493-.237,64.914,64.914,0,0,1,6.508.237,2.133,2.133,0,0,1,1.2.546,2.161,2.161,0,0,1,.679,1.161,20.215,20.215,0,0,1,.3,4.107A19.389,19.389,0,0,1,20.5,20.567Z" transform="translate(0 0)" fill="#2ec4b6"/>
      </g>
    </g>
  </g>
</svg>
